<svg width="30" height="30" viewBox="0 0 30 30" fill="none" xmlns="http://www.w3.org/2000/svg">
<g clip-path="url(#clip0_49_10200)">
<path d="M5.4837 10.3564C5.1312 10.7764 4.56964 11.1092 4.00902 11.0605C3.93495 10.4942 4.21433 9.88768 4.53683 9.51174C4.88839 9.0833 5.50339 8.7758 6.00214 8.75049C6.0612 9.34205 5.82964 9.9233 5.4837 10.3564ZM5.99652 11.1721C5.18183 11.1224 4.48245 11.6399 4.0962 11.6399C3.70152 11.6399 3.10995 11.1964 2.46589 11.2114C1.63058 11.2217 0.849642 11.6989 0.424954 12.4667C-0.459108 13.9939 0.195267 16.2552 1.04464 17.5002C1.45995 18.1152 1.95683 18.7892 2.61214 18.7705C3.23183 18.7452 3.4812 18.3608 4.22839 18.3608C4.98495 18.3608 5.19964 18.7705 5.85964 18.7555C6.53745 18.7452 6.96683 18.1405 7.38214 17.5255C7.85558 16.8271 8.05058 16.1427 8.06089 16.1089C8.05058 16.0939 6.74745 15.5914 6.73808 14.0774C6.72777 12.8071 7.76277 12.2024 7.80683 12.1677C7.22558 11.2892 6.30777 11.1964 5.99558 11.173L5.99652 11.1721ZM10.699 9.45268V18.6917H12.1193V15.5333H14.0834C15.875 15.5333 17.135 14.2883 17.135 12.4911C17.135 10.6902 15.9003 9.45361 14.1321 9.45361L10.699 9.45268ZM12.1193 10.6639H13.7553C14.9853 10.6639 15.6893 11.3277 15.6893 12.4949C15.6893 13.6621 14.9853 14.3314 13.7459 14.3314H12.1193V10.6639ZM19.7215 18.7602C20.615 18.7602 21.44 18.3064 21.8168 17.5827H21.8468V18.6917H23.1593V14.0914C23.1593 12.7639 22.1056 11.9005 20.479 11.9005C18.9753 11.9005 17.8615 12.7742 17.8231 13.9705H19.0971C19.205 13.3996 19.7225 13.0283 20.4406 13.0283C21.3096 13.0283 21.7934 13.438 21.7934 14.1908V14.698L20.0262 14.8058C18.3753 14.908 17.4865 15.5867 17.4865 16.7736C17.4865 17.9699 18.4053 18.7611 19.7225 18.7611L19.7215 18.7602ZM20.1078 17.6661C19.3503 17.6661 18.8675 17.2996 18.8675 16.7389C18.8675 16.1577 19.3315 15.8155 20.2146 15.7611L21.7925 15.6636V16.1858C21.7925 17.0511 21.065 17.6661 20.1021 17.6661H20.1078ZM24.9125 21.2061C26.2934 21.2061 26.944 20.6689 27.5103 19.0527L30.0003 11.9924H28.5603L26.8906 17.4458H26.8606L25.1909 11.9924H23.7068L26.1096 18.7161L25.9821 19.1258C25.7618 19.8149 25.4112 20.0821 24.7859 20.0821C24.6734 20.0821 24.4587 20.068 24.3706 20.0586V21.1677C24.4531 21.1911 24.8056 21.2014 24.9078 21.2014L24.9125 21.2061Z" fill="#50C917"/>
</g>
<defs>
<clipPath id="clip0_49_10200">
<rect width="30" height="30" fill="white"/>
</clipPath>
</defs>
</svg>
