<svg width="24" height="24" viewBox="0 0 24 24" fill="none" xmlns="http://www.w3.org/2000/svg">
<path d="M17.414 10.414C18 9.828 18 8.886 18 7C18 5.114 18 4.172 17.414 3.586M17.414 10.414C16.828 11 15.886 11 14 11H10C8.114 11 7.172 11 6.586 10.414M17.414 3.586C16.828 3 15.886 3 14 3H10C8.114 3 7.172 3 6.586 3.586M6.586 3.586C6 4.172 6 5.114 6 7C6 8.886 6 9.828 6.586 10.414" stroke="#50C917" stroke-width="1.5"/>
<path opacity="0.5" d="M13 7C13 7.26522 12.8946 7.51957 12.7071 7.70711C12.5196 7.89464 12.2652 8 12 8C11.7348 8 11.4804 7.89464 11.2929 7.70711C11.1054 7.51957 11 7.26522 11 7C11 6.73478 11.1054 6.48043 11.2929 6.29289C11.4804 6.10536 11.7348 6 12 6C12.2652 6 12.5196 6.10536 12.7071 6.29289C12.8946 6.48043 13 6.73478 13 7Z" stroke="#50C917" stroke-width="1.5"/>
<path opacity="0.5" d="M18 6C17.2044 6 16.4413 5.68393 15.8787 5.12132C15.3161 4.55871 15 3.79565 15 3M18 8C17.2044 8 16.4413 8.31607 15.8787 8.87868C15.3161 9.44129 15 10.2044 15 11M6 6C6.79565 6 7.55871 5.68393 8.12132 5.12132C8.68393 4.55871 9 3.79565 9 3M6 8C6.79565 8 7.55871 8.31607 8.12132 8.87868C8.68393 9.44129 9 10.2044 9 11M4 21.388H6.26C7.27 21.388 8.293 21.494 9.276 21.696C11.031 22.0565 12.8368 22.0965 14.606 21.814C15.474 21.674 16.326 21.459 17.098 21.087C17.794 20.75 18.647 20.277 19.22 19.746C19.792 19.216 20.388 18.349 20.81 17.671C21.174 17.089 20.998 16.376 20.424 15.943C20.1015 15.7084 19.7129 15.582 19.314 15.582C18.9151 15.582 18.5265 15.7084 18.204 15.943L16.397 17.308C15.697 17.838 14.932 18.325 14.021 18.47C13.911 18.487 13.796 18.503 13.676 18.517M13.676 18.517C13.6394 18.5212 13.6027 18.5252 13.566 18.529M13.676 18.517C13.8361 18.4737 13.9828 18.3912 14.103 18.277C14.2537 18.1466 14.3767 17.9874 14.4649 17.8087C14.553 17.63 14.6045 17.4355 14.6163 17.2366C14.628 17.0377 14.5998 16.8384 14.5333 16.6506C14.4668 16.4628 14.3633 16.2902 14.229 16.143C14.0987 15.9983 13.9469 15.8746 13.779 15.776C10.982 14.107 6.629 15.378 4 17.243M13.676 18.517C13.6399 18.5249 13.603 18.5289 13.566 18.529M13.566 18.529C12.9629 18.5896 12.3553 18.5909 11.752 18.533" stroke="#50C917" stroke-width="1.5" stroke-linecap="round"/>
</svg>
