<svg width="24" height="24" viewBox="0 0 24 24" fill="none" xmlns="http://www.w3.org/2000/svg">
<path d="M16.9989 12C18.0862 11.9998 19.1439 11.6452 20.0115 10.9899C20.8792 10.3345 21.5096 9.41425 21.8071 8.36843C22.1047 7.32262 22.0533 6.20831 21.6606 5.19436C21.268 4.18041 20.5555 3.32209 19.6311 2.74949C18.7068 2.17688 17.621 1.9212 16.5383 2.02119C15.4555 2.12118 14.4349 2.57139 13.6311 3.30358C12.8272 4.03578 12.284 5.01006 12.0837 6.07878C11.8833 7.14749 12.0368 8.25238 12.5209 9.22601C12.6124 9.40279 12.6362 9.6069 12.5879 9.80001L12.2899 10.913C12.2604 11.0232 12.2604 11.1392 12.2899 11.2494C12.3195 11.3596 12.3775 11.4601 12.4582 11.5407C12.5388 11.6214 12.6393 11.6794 12.7495 11.709C12.8597 11.7385 12.9757 11.7385 13.0859 11.709L14.1989 11.411C14.392 11.3627 14.5961 11.3865 14.7729 11.478C15.4644 11.8223 16.2265 12.001 16.9989 12Z" stroke="#F3C95B" stroke-width="1.5"/>
<path opacity="0.5" d="M8.03766 7.31622L8.68666 8.47922C9.27166 9.52922 9.03666 10.9052 8.11466 11.8282C8.11466 11.8282 6.99466 12.9472 9.02466 14.9762C11.0517 17.0032 12.1717 15.8862 12.1717 15.8862C13.0947 14.9632 14.4717 14.7282 15.5207 15.3132L16.6837 15.9632C18.2687 16.8472 18.4557 19.0692 17.0627 20.4632C16.2257 21.2992 15.1997 21.9512 14.0667 21.9932C12.1587 22.0662 8.91766 21.5832 5.66666 18.3332C2.41666 15.0822 1.93366 11.8412 2.00666 9.93322C2.04966 8.80022 2.70066 7.77422 3.53666 6.93722C4.93066 5.54422 7.15266 5.73122 8.03666 7.31722L8.03766 7.31622Z" stroke="#F3C95B" stroke-width="1.5" stroke-linecap="round"/>
</svg>
