<svg width="72" height="72" viewBox="0 0 72 72" fill="none" xmlns="http://www.w3.org/2000/svg">
<path d="M35.9996 2.25C21.2621 2.25 8.77461 11.7 4.16211 24.75H67.8371C63.2246 11.7 50.7371 2.25 35.9996 2.25Z" fill="#ED4C5C"/>
<path d="M35.9996 69.75C50.7371 69.75 63.2246 60.4125 67.8371 47.25H4.16211C8.77461 60.4125 21.2621 69.75 35.9996 69.75Z" fill="#3E4347"/>
<path d="M4.1625 24.75C2.925 28.2375 2.25 32.0625 2.25 36C2.25 39.9375 2.925 43.7625 4.1625 47.25H67.8375C69.075 43.7625 69.75 39.9375 69.75 36C69.75 32.0625 69.075 28.2375 67.8375 24.75H4.1625Z" fill="#F9F9F9"/>
<path d="M34.4255 28.2377C34.763 28.0127 34.988 28.2377 35.213 28.4627C35.3255 28.6877 35.3255 29.3627 35.1005 30.1502C34.988 30.6002 34.6505 31.0502 34.4255 31.3877C34.8755 31.3877 35.438 31.2752 36.0005 31.0502C36.563 31.2752 37.013 31.3877 37.5755 31.3877C37.3505 30.9377 37.1255 30.0377 37.238 29.3627C37.238 28.3502 37.1255 28.0127 36.9005 27.7877C36.6755 27.5627 36.113 27.4502 35.7755 27.4502C35.5505 27.4502 35.5505 27.5627 35.5505 27.5627C35.1005 27.4502 34.763 27.4502 34.538 27.5627C34.313 27.7877 34.313 28.3502 34.4255 28.2377Z" fill="white"/>
<path d="M41.9621 31.6126C41.7371 30.3751 40.4996 30.7126 39.4871 31.2751C39.0371 31.5001 38.5871 31.7251 38.1371 31.7251H37.7996C37.2371 31.7251 36.5621 31.6126 35.9996 31.3876C35.4371 31.6126 34.7621 31.7251 34.1996 31.7251H33.9746C33.4121 31.7251 32.9621 31.5001 32.5121 31.1626C31.6121 30.7126 30.3746 30.3751 30.0371 31.5001C30.2621 31.3876 30.4871 31.1626 30.5996 31.1626L30.1496 41.9626L30.3746 41.7376L30.8246 31.2751C30.9371 31.3876 31.3871 31.8376 31.4996 31.8376L31.1621 40.9501L31.4996 40.6126L31.8371 31.9501C31.9496 32.0626 32.2871 32.2876 32.3996 32.4001L32.0621 39.9376L32.9621 39.1501L33.8621 36.1126C33.0746 34.4251 33.1871 32.9626 33.1871 32.9626H33.4121C33.9746 32.9626 35.2121 32.6251 35.7746 32.2876C35.8871 32.2876 35.8871 32.1751 35.9996 32.1751C35.9996 32.2876 36.1121 32.2876 36.2246 32.4001C36.7871 32.7376 38.0246 33.0751 38.5871 33.0751H38.8121C38.8121 33.0751 38.9246 34.5376 38.1371 36.2251L38.9246 39.1501L39.8246 39.9376L39.4871 32.5126C39.5996 32.4001 39.8246 32.1751 40.0496 32.0626L40.3871 40.5001L40.7246 40.8376L40.3871 31.8376C40.4996 31.7251 40.9496 31.3876 41.0621 31.2751L41.5121 41.6251L41.7371 41.8501L41.2871 31.1626C41.3996 31.2751 41.7371 31.5001 41.9621 31.6126Z" fill="white"/>
<path d="M34.9863 33.4127V37.8002C34.9863 37.8002 34.9863 37.9127 35.0988 37.9127C35.2113 38.1377 35.4363 38.2502 35.5488 38.4752L35.8863 38.8127L36.2238 38.4752L36.7863 37.9127V33.6377C36.4488 33.5252 36.1113 33.4127 35.8863 33.1877C35.7738 33.0752 35.4363 33.1877 34.9863 33.4127Z" fill="white"/>
<path d="M40.8375 42.6377C40.8375 42.0752 40.275 42.0752 39.825 42.1877C39.7125 42.1877 39.7125 42.1877 39.6 42.3002L38.925 39.8252L42.6375 43.4252L42.1875 31.7252C42.075 29.9252 40.6125 30.3752 39.6 31.0502C39.0375 31.3877 38.5875 31.6127 38.025 31.6127C37.2375 30.2627 37.6875 28.4627 37.125 28.0127C36.9 27.7877 36.1125 27.4502 35.55 27.4502C35.2125 27.4502 35.325 27.6752 35.325 27.6752C34.7625 27.5627 34.3125 27.5627 34.0875 27.7877C33.8625 27.9002 34.0875 29.0252 34.2 28.8002C34.5375 28.4627 34.65 28.5752 34.875 28.9127C35.1 29.2502 34.65 30.6002 34.0875 31.6127C33.4125 31.6127 32.85 31.3877 32.2875 31.0502C31.1625 30.3752 29.7 30.0377 29.7 31.7252L29.25 43.3127L32.9625 39.8252L32.2875 42.1877C32.175 42.1877 32.175 42.1877 32.0625 42.0752C31.6125 41.9627 31.05 41.9627 31.05 42.5252C30.375 42.4127 30.15 43.4252 30.825 43.6502C30.825 43.9877 30.825 44.2127 31.275 44.2127C32.2875 44.5502 34.0875 44.6627 35.8875 44.6627C37.6875 44.6627 39.4875 44.5502 40.5 44.2127C40.95 44.1002 40.95 43.8752 40.95 43.6502C41.85 43.4252 41.5125 42.4127 40.8375 42.6377ZM35.1 37.8002C35.1 37.6877 35.1 37.6877 35.1 37.8002L34.9875 37.6877V33.4127C35.4375 33.3002 35.775 33.1877 36 32.9627C36.225 33.1877 36.5625 33.3002 36.9 33.4127V37.6877C36.675 37.9127 36.5625 38.1377 36.3375 38.2502L36 38.5877L35.6625 38.2502C35.4375 38.1377 35.325 37.9127 35.1 37.8002ZM35.1 30.2627C35.325 29.4752 35.325 28.8002 35.2125 28.5752C34.9875 28.3502 34.7625 28.1252 34.425 28.3502C34.3125 28.4627 34.3125 27.9002 34.5375 27.7877C34.7625 27.6752 35.1 27.6752 35.55 27.7877C35.55 27.7877 35.55 27.5627 35.775 27.6752C36.1125 27.6752 36.7875 27.9002 36.9 28.0127C37.0125 28.1252 37.2375 28.5752 37.2375 29.5877C37.2375 30.2627 37.35 31.1627 37.575 31.6127C37.125 31.6127 36.5625 31.5002 36 31.2752C35.4375 31.5002 34.9875 31.6127 34.425 31.6127C34.65 31.1627 34.9875 30.7127 35.1 30.2627ZM32.175 40.2752L32.5125 32.7377C32.4 32.6252 32.175 32.4002 31.95 32.2877L31.5 40.8377L31.1625 41.1752L31.5 32.0627C31.3875 31.9502 30.9375 31.6127 30.825 31.5002L30.375 41.9627L30.15 42.1877L30.6 31.3877C30.4875 31.3877 30.15 31.5002 30.0375 31.7252C30.375 30.6002 31.6125 30.9377 32.5125 31.5002C32.9625 31.8377 33.525 31.9502 33.975 32.0627H34.2C34.7625 32.0627 35.325 31.9502 36 31.7252C36.675 31.9502 37.2375 32.0627 37.8 32.0627H38.1375C38.5875 31.9502 39.0375 31.8377 39.4875 31.6127C40.5 31.0502 41.7375 30.7127 41.9625 31.9502C41.7375 31.8377 41.4 31.6127 41.2875 31.6127L41.7375 42.3002L41.5125 42.0752L41.0625 31.5002C40.95 31.6127 40.5 32.0627 40.3875 32.0627L40.725 41.0627L40.3875 40.7252L40.05 32.2877C39.9375 32.4002 39.6 32.6252 39.4875 32.7377L39.825 40.1627L38.925 39.3752L38.1375 36.4502C38.925 34.7627 38.8125 33.3002 38.8125 33.3002H38.5875C38.025 33.3002 36.7875 33.0752 36.225 32.6252C36.1125 32.6252 36.1125 32.5127 36 32.4002C36 32.4002 35.8875 32.5127 35.775 32.5127C35.2125 32.8502 33.975 33.1877 33.4125 33.1877H33.1875C33.1875 33.1877 33.075 34.6502 33.8625 36.3377L32.9625 39.3752L32.175 40.2752ZM36 42.5252H34.7625L35.55 38.7002C35.6625 38.8127 35.775 38.9252 36 39.0377C36.1125 38.9252 36.3375 38.8127 36.45 38.7002L37.35 42.5252H36Z" fill="#C09300"/>
</svg>
