<svg width="80" height="112" viewBox="0 0 80 112" fill="none" xmlns="http://www.w3.org/2000/svg">
<path d="M62.1071 94.3453L39.5547 62.2585L30.9372 49.6077M30.9372 49.6077L52.7038 34.8994C58.6911 30.8536 60.23 22.7016 56.1298 16.7514L28.7369 -23M30.9372 49.6077L-5 -4.66472" stroke="#EDC65D" stroke-width="3"/>
<circle cx="59.9057" cy="91.778" r="18.3353" transform="rotate(-5.5578 59.9057 91.778)" fill="white" fill-opacity="0.21"/>
<circle cx="59.9072" cy="91.7785" r="16.8685" transform="rotate(-5.5578 59.9072 91.7785)" fill="#F3C857"/>
<path d="M55.2859 92.0541C55.2168 92.065 55.1507 92.0898 55.0915 92.1269C55.0323 92.1641 54.9813 92.2128 54.9414 92.2702C54.9015 92.3276 54.8737 92.3925 54.8596 92.4609C54.8454 92.5294 54.8453 92.6 54.8592 92.6685L56.9894 103.118C57.3284 104.78 59.5108 105.195 60.2342 103.734L63.3109 97.5217C63.5501 97.0387 64.006 96.7128 64.5396 96.6434L71.4138 95.7431C73.0298 95.5315 73.3444 93.3316 71.8803 92.4733L68.4327 90.4505C68.0191 90.2074 67.5339 90.1155 67.06 90.1903L55.2859 92.0541Z" fill="white"/>
<path opacity="0.5" d="M54.93 90.5385C54.7984 90.5592 54.6639 90.5284 54.5544 90.4525C54.4449 90.3767 54.3689 90.2615 54.3421 90.1311L53.2486 84.7714C52.9482 83.3003 54.4356 82.237 55.7304 82.9974L64.4338 88.1048C64.5259 88.1588 64.599 88.24 64.6432 88.3371C64.6874 88.4343 64.7004 88.5427 64.6807 88.6476C64.6609 88.7525 64.6091 88.8487 64.5326 88.9231C64.456 88.9974 64.3584 89.0463 64.2529 89.0631L54.93 90.5385Z" fill="white"/>
</svg>
