<svg width="80" height="112" viewBox="0 0 80 112" fill="none" xmlns="http://www.w3.org/2000/svg">
<path d="M62.1071 94.3453L39.5547 62.2585L30.9372 49.6077M30.9372 49.6077L52.7038 34.8994C58.6911 30.8536 60.23 22.7016 56.1298 16.7514L28.7369 -23M30.9372 49.6077L-5 -4.66472" stroke="#5BD881" stroke-width="3"/>
<circle cx="59.9057" cy="91.7785" r="18.3353" transform="rotate(-5.5578 59.9057 91.7785)" fill="#F8F1DE"/>
<circle cx="59.9072" cy="91.779" r="16.8685" transform="rotate(-5.5578 59.9072 91.779)" fill="#5BD881"/>
<path d="M60.6411 90.1011C59.7702 90.1016 58.9352 89.7562 58.32 89.1408C57.7047 88.5253 57.3594 87.6903 57.3602 86.8193C57.361 85.9484 57.7078 85.1129 58.3242 84.4966C58.9406 83.8804 59.7762 83.5338 60.6471 83.5333L65.0256 83.5299C65.8903 83.539 66.7159 83.8887 67.3233 84.5031C67.9308 85.1175 68.2711 85.947 68.2704 86.8117C68.2697 87.6763 67.9281 88.5064 67.3197 89.1217C66.7113 89.7371 65.8851 90.088 65.0205 90.0985L60.6411 90.1011Z" stroke="white" stroke-width="1.5"/>
<path opacity="0.5" d="M52 100.385H54.26C55.27 100.385 56.293 100.491 57.276 100.693C59.031 101.053 60.8368 101.093 62.606 100.811C63.474 100.671 64.326 100.456 65.098 100.084C65.794 99.7468 66.647 99.2738 67.22 98.7428C67.792 98.2128 68.388 97.3458 68.81 96.6678C69.174 96.0858 68.998 95.3728 68.424 94.9398C68.1015 94.7052 67.7129 94.5788 67.314 94.5788C66.9151 94.5788 66.5265 94.7052 66.204 94.9398L64.397 96.3048C63.697 96.8348 62.932 97.3218 62.021 97.4668C61.911 97.4838 61.796 97.4998 61.676 97.5138M61.676 97.5138C61.6394 97.518 61.6027 97.522 61.566 97.5258M61.676 97.5138C61.8361 97.4705 61.9828 97.388 62.103 97.2738C62.2537 97.1434 62.3767 96.9842 62.4649 96.8055C62.553 96.6268 62.6045 96.4323 62.6163 96.2334C62.628 96.0345 62.5998 95.8352 62.5333 95.6474C62.4668 95.4596 62.3633 95.287 62.229 95.1398C62.0987 94.9951 61.9469 94.8713 61.779 94.7728C58.982 93.1038 54.629 94.3748 52 96.2398M61.676 97.5138C61.6399 97.5217 61.603 97.5257 61.566 97.5258M61.566 97.5258C60.9629 97.5864 60.3553 97.5877 59.752 97.5298" stroke="white" stroke-width="1.5" stroke-linecap="round"/>
</svg>
