<svg width="80" height="112" viewBox="0 0 80 112" fill="none" xmlns="http://www.w3.org/2000/svg">
<path d="M62.1071 94.3453L39.5547 62.2585L30.9372 49.6077M30.9372 49.6077L52.7038 34.8994C58.6911 30.8536 60.23 22.7016 56.1298 16.7514L28.7369 -23M30.9372 49.6077L-5 -4.66472" stroke="#5BD881" stroke-width="3"/>
<circle cx="59.9057" cy="91.7785" r="18.3353" transform="rotate(-5.5578 59.9057 91.7785)" fill="#F8EDD4"/>
<circle cx="59.9072" cy="91.779" r="16.8685" transform="rotate(-5.5578 59.9072 91.779)" fill="#5BD881"/>
<path d="M54.886 98H64.533C65.15 98 65.459 98 65.735 97.961C66.861 97.803 67.835 97.176 68.359 96.271C68.488 96.049 68.585 95.788 68.78 95.265L69.9 92.265C70.315 91.15 69.387 90 68.073 90C67.263 90 66.539 90.453 66.263 91.134L65.263 93.6C65.068 94.078 64.971 94.317 64.787 94.483C64.687 94.574 64.568 94.648 64.438 94.702C64.2 94.8 63.916 94.8 63.347 94.8H56.367C56.074 94.8 55.927 94.8 55.797 94.773C55.501 94.717 55.2368 94.5518 55.057 94.31C54.985 94.21 54.935 94.086 54.835 93.84L53.737 91.134C53.461 90.454 52.737 90 51.927 90C50.613 90 49.685 91.15 50.1 92.264L51.403 95.757L51.442 95.859C51.939 97.124 53.265 97.979 54.765 97.999L54.886 98Z" stroke="white" stroke-width="1.5"/>
<path opacity="0.5" d="M54 92V88.571C54 86.416 54 85.339 54.703 84.669C55.406 84 56.537 84 58.8 84H61.2C63.463 84 64.594 84 65.297 84.67C66 85.338 66 86.415 66 88.57V92" stroke="white" stroke-width="1.5"/>
<path opacity="0.5" d="M66 100V98M54 100V98.667" stroke="white" stroke-width="1.5" stroke-linecap="round"/>
</svg>
