<svg width="80" height="112" viewBox="0 0 80 112" fill="none" xmlns="http://www.w3.org/2000/svg">
<path d="M62.1071 94.3453L39.5547 62.2585L30.9372 49.6077M30.9372 49.6077L52.7038 34.8994C58.6911 30.8536 60.23 22.7016 56.1298 16.7514L28.7369 -23M30.9372 49.6077L-5 -4.66472" stroke="#5BD881" stroke-width="3"/>
<circle cx="59.9057" cy="91.7785" r="18.3353" transform="rotate(-5.5578 59.9057 91.7785)" fill="white" fill-opacity="0.21"/>
<circle cx="59.9072" cy="91.779" r="16.8685" transform="rotate(-5.5578 59.9072 91.779)" fill="#5BD881"/>
<path d="M55.2859 92.0555C55.2168 92.0665 55.1507 92.0912 55.0915 92.1284C55.0323 92.1655 54.9813 92.2143 54.9414 92.2717C54.9015 92.3291 54.8737 92.394 54.8596 92.4624C54.8454 92.5309 54.8453 92.6015 54.8592 92.6699L56.9894 103.119C57.3284 104.782 59.5108 105.197 60.2342 103.736L63.3109 97.5231C63.5501 97.0402 64.006 96.7143 64.5396 96.6449L71.4138 95.7446C73.0298 95.5329 73.3444 93.3331 71.8803 92.4748L68.4327 90.452C68.0191 90.2089 67.5339 90.1169 67.06 90.1918L55.2859 92.0555Z" fill="white"/>
<path opacity="0.5" d="M54.9309 90.5385C54.7994 90.5592 54.6649 90.5284 54.5554 90.4525C54.4459 90.3767 54.3698 90.2615 54.343 90.1311L53.2495 84.7714C52.9492 83.3003 54.4366 82.237 55.7314 82.9974L64.4348 88.1048C64.5269 88.1588 64.6 88.24 64.6442 88.3371C64.6883 88.4343 64.7014 88.5427 64.6816 88.6476C64.6618 88.7525 64.6101 88.8487 64.5336 88.9231C64.457 88.9974 64.3593 89.0463 64.2539 89.0631L54.9309 90.5385Z" fill="white"/>
</svg>
