<svg width="80" height="112" viewBox="0 0 80 112" fill="none" xmlns="http://www.w3.org/2000/svg">
<path d="M62.1071 94.3453L39.5547 62.2585L30.9372 49.6077M30.9372 49.6077L52.7038 34.8994C58.6911 30.8536 60.23 22.7016 56.1298 16.7514L28.7369 -23M30.9372 49.6077L-5 -4.66472" stroke="#F3C857" stroke-width="3"/>
<circle cx="59.9057" cy="91.778" r="18.3353" transform="rotate(-5.5578 59.9057 91.778)" fill="#F8F1DE"/>
<circle cx="59.9072" cy="91.7785" r="16.8685" transform="rotate(-5.5578 59.9072 91.7785)" fill="#F3C857"/>
<path d="M60.6411 90.1006C59.7702 90.1012 58.9352 89.7557 58.32 89.1403C57.7047 88.5248 57.3594 87.6898 57.3602 86.8188C57.361 85.9479 57.7078 85.1124 58.3242 84.4961C58.9406 83.8799 59.7762 83.5334 60.6471 83.5328L65.0256 83.5294C65.8903 83.5385 66.7159 83.8882 67.3233 84.5026C67.9308 85.117 68.2711 85.9465 68.2704 86.8112C68.2697 87.6758 67.9281 88.5059 67.3197 89.1212C66.7113 89.7366 65.8851 90.0876 65.0205 90.098L60.6411 90.1006Z" stroke="white" stroke-width="1.5"/>
<path opacity="0.5" d="M52 100.386H54.26C55.27 100.386 56.293 100.492 57.276 100.694C59.031 101.055 60.8368 101.095 62.606 100.812C63.474 100.672 64.326 100.457 65.098 100.085C65.794 99.7483 66.647 99.2753 67.22 98.7443C67.792 98.2143 68.388 97.3473 68.81 96.6693C69.174 96.0873 68.998 95.3743 68.424 94.9413C68.1015 94.7066 67.7129 94.5803 67.314 94.5803C66.9151 94.5803 66.5265 94.7066 66.204 94.9413L64.397 96.3063C63.697 96.8363 62.932 97.3233 62.021 97.4683C61.911 97.4853 61.796 97.5013 61.676 97.5153M61.676 97.5153C61.6394 97.5195 61.6027 97.5235 61.566 97.5273M61.676 97.5153C61.8361 97.472 61.9828 97.3895 62.103 97.2753C62.2537 97.1449 62.3767 96.9857 62.4649 96.807C62.553 96.6283 62.6045 96.4337 62.6163 96.2348C62.628 96.0359 62.5998 95.8367 62.5333 95.6489C62.4668 95.461 62.3633 95.2884 62.229 95.1413C62.0987 94.9966 61.9469 94.8728 61.779 94.7743C58.982 93.1053 54.629 94.3763 52 96.2413M61.676 97.5153C61.6399 97.5231 61.603 97.5271 61.566 97.5273M61.566 97.5273C60.9629 97.5879 60.3553 97.5892 59.752 97.5313" stroke="white" stroke-width="1.5" stroke-linecap="round"/>
</svg>
