<svg width="32" height="32" viewBox="0 0 32 32" fill="none" xmlns="http://www.w3.org/2000/svg">
<path d="M32 21.5C32 24.5375 30.3135 27 27 27H5C1.6865 27 0 24.5375 0 21.5V10.5C0 7.4625 1.6865 5 5 5H27C30.3135 5 32 7.4625 32 10.5V21.5Z" fill="#137A08"/>
<path fill-rule="evenodd" clip-rule="evenodd" d="M15.2957 15.6602C15.2602 15.1637 15.3397 15.0392 15.9082 14.7097C15.7467 14.5627 15.5517 14.5287 15.3517 14.5132C15.1122 14.4952 14.8732 14.4872 14.6362 14.4647C14.5142 14.4542 14.4912 14.4062 14.5142 14.2857C14.5782 13.9557 14.7492 13.7267 15.0852 13.6222C15.4122 13.5197 15.7317 13.3927 16.0637 13.2722C16.0532 13.2437 16.0397 13.2157 16.0272 13.1867C15.9898 13.116 15.9693 13.0376 15.9671 12.9576C15.965 12.8777 15.9812 12.7983 16.0147 12.7257C16.0412 12.6687 16.0707 12.6117 16.1037 12.5592C16.3087 12.2317 16.5077 12.1712 16.8562 12.3352C16.9662 12.3872 17.0732 12.4497 17.1687 12.5242C17.4457 12.7397 17.4707 13.0437 17.2232 13.2952C17.1197 13.3977 16.9797 13.4682 16.8552 13.5527C16.7837 13.5997 16.6687 13.5867 16.6437 13.7027C16.6422 13.7117 16.6002 13.7127 16.5772 13.7167C16.5147 13.7202 16.4462 13.7072 16.3902 13.7292C16.1227 13.8282 15.8592 13.9352 15.5957 14.0432C15.5547 14.0582 15.5192 14.0857 15.4797 14.1072L15.4867 14.1402C15.7227 14.1402 15.9617 14.1437 16.1972 14.1387C16.7257 14.1252 17.2552 14.1082 17.7837 14.0917C17.9557 14.0877 17.9762 14.1197 17.9247 14.2842C17.9126 14.3194 17.9012 14.3549 17.8907 14.3907C17.8397 14.5762 17.7137 14.6592 17.5272 14.6877C16.9612 14.7687 16.4202 14.9487 15.8887 15.1597C15.7667 15.2097 15.6407 15.2772 15.6347 15.4257C15.6302 15.5712 15.7372 15.6627 15.8542 15.7267C15.9727 15.7902 16.0987 15.8362 16.2222 15.8847C16.3632 15.9377 16.3887 15.9792 16.3522 16.1212C16.2722 16.4182 16.2642 16.4357 15.9452 16.4017C15.3072 16.3327 14.7507 16.1012 14.3747 15.5457C14.2987 15.4327 14.2412 15.3057 14.1657 15.1692C14.1352 15.2082 14.1052 15.2437 14.0752 15.2812C13.8352 15.6107 13.5752 15.9227 13.2442 16.1697C13.0057 16.3492 12.7532 16.4897 12.4382 16.4827C12.0667 16.4737 11.8347 16.2847 11.7632 15.9167C11.7542 15.8712 11.7442 15.8267 11.7347 15.7837C11.3877 15.9122 11.0467 16.0397 10.7062 16.1607C10.5392 16.2182 10.3712 16.2707 10.2012 16.3162C10.1417 16.3327 10.0767 16.3267 10.0142 16.3302C10.0072 16.3152 9.99967 16.3002 9.99467 16.2842C10.0417 16.2512 10.0867 16.2137 10.1362 16.1852C10.6412 15.8917 11.1412 15.5977 11.6462 15.3062C11.7247 15.2607 11.7607 15.1967 11.7872 15.1127C11.8652 14.8872 11.9522 14.6657 12.0387 14.4427C12.0547 14.4007 12.0842 14.3667 12.1242 14.3017C12.2212 14.5147 12.1287 14.7137 12.1767 14.9122C12.2062 14.8967 12.2352 14.8822 12.2572 14.8632C12.4427 14.7102 12.6307 14.5622 12.8072 14.4007C13.0532 14.1742 13.0897 13.9847 12.9577 13.6787C12.8827 13.5097 12.7987 13.3452 12.7142 13.1812C12.6978 13.1478 12.6712 13.1207 12.6382 13.1037C12.5377 13.0452 12.5072 12.9612 12.5447 12.8582C12.5882 12.7447 12.6387 12.6352 12.6952 12.5287C12.7387 12.4482 12.8142 12.4367 12.8722 12.5042C13.0012 12.6517 13.1232 12.8067 13.2362 12.9652C13.3032 13.0592 13.2662 13.1322 13.1652 13.1632C13.2162 13.3662 13.2737 13.5642 13.3142 13.7647C13.3917 14.1647 13.2687 14.5082 13.0012 14.8077C12.7517 15.0882 12.4762 15.3377 12.1507 15.5307C12.1107 15.5537 12.0787 15.6212 12.0807 15.6697C12.0817 15.7792 12.1277 15.8907 12.2417 15.9112C12.3747 15.9352 12.5207 15.9472 12.6482 15.9167C12.9532 15.8472 13.1972 15.6562 13.3987 15.4287C13.6002 15.1967 13.7697 14.9347 13.9522 14.6867C14.0067 14.6117 14.0087 14.5372 13.9817 14.4482C13.8132 13.9272 13.6517 13.4017 13.4852 12.8812C13.4047 12.6297 13.4877 12.2947 13.6787 12.1487C13.7112 12.2027 13.7427 12.2527 13.7702 12.3072C14.1132 13.0107 14.3182 13.7537 14.4197 14.5287C14.4557 14.8167 14.5102 15.1037 14.7157 15.3322C14.8697 15.5047 15.0702 15.6022 15.2957 15.6602ZM16.8652 13.0557C16.8662 13.0437 16.8662 13.0307 16.8662 13.0197C16.7212 12.9547 16.6062 12.8232 16.4012 12.8232C16.4162 12.9407 16.4292 13.0432 16.4422 13.1652L16.8652 13.0557ZM21.2047 22.2792C20.9407 22.2792 20.7067 22.2752 20.4712 22.2817C19.9882 22.2922 19.5072 22.3152 19.0217 22.3187C16.3027 22.3392 13.5812 22.3572 10.8607 22.3672C10.3632 22.3682 9.86317 22.3342 9.37867 22.1962C9.15117 22.1312 8.93817 22.0327 8.76967 21.8562C8.72967 21.8142 8.69567 21.7612 8.63867 21.6872H8.85617C11.8462 21.7062 14.8362 21.7307 17.8252 21.7442C18.8962 21.7507 19.9652 21.7377 21.0362 21.7307C21.0792 21.7307 21.1557 21.7167 21.1577 21.7022C21.1657 21.6477 21.1677 21.5722 21.1352 21.5382C20.9877 21.3747 21.0712 21.2412 21.1862 21.1042C21.2327 21.0492 21.2817 21.0407 21.3332 21.1012C21.4742 21.2707 21.5162 21.3587 21.3902 21.5202C21.3547 21.5662 21.3572 21.6422 21.3382 21.7167C21.3937 21.7212 21.4267 21.7277 21.4577 21.7267C21.9677 21.7177 22.4732 21.7067 22.9822 21.6962C23.0782 21.6962 23.1757 21.7027 23.2717 21.7142C23.5017 21.7407 23.6237 21.8527 23.6737 22.0817C23.7167 22.2732 23.7167 22.4667 23.6427 22.6522C23.5437 22.9032 23.3152 22.9542 23.1117 22.7757C23.0763 22.7494 23.0341 22.7339 22.9902 22.7312C22.8602 22.7272 22.7297 22.7312 22.5997 22.7322C22.5032 22.7337 22.4072 22.7187 22.3367 22.8277C22.2907 22.8982 22.2067 22.8687 22.1342 22.8227C22.0819 22.7876 22.0221 22.7654 21.9597 22.7577C21.8552 22.7487 21.7492 22.7627 21.6452 22.7557C21.5227 22.7497 21.4237 22.7702 21.3687 22.8977C21.3377 22.9662 21.2817 22.9637 21.2262 22.9112C21.0757 22.7757 21.0632 22.6657 21.1637 22.4862C21.1932 22.4327 21.1892 22.3622 21.2047 22.2792ZM22.9917 22.5542L23.0222 22.2317C22.9972 22.2292 22.9767 22.2212 22.9577 22.2212C22.4677 22.2337 21.9782 22.2442 21.4872 22.2587C21.3727 22.2622 21.3292 22.3417 21.3857 22.4452C21.4352 22.5332 21.4942 22.6052 21.6227 22.5822C21.7372 22.5637 21.8567 22.5782 21.9727 22.5672C22.0263 22.5609 22.0765 22.5378 22.1162 22.5012C22.1952 22.4262 22.2697 22.4282 22.3507 22.4887C22.3837 22.5152 22.4182 22.5497 22.4522 22.5512C22.6307 22.5592 22.8112 22.5542 22.9917 22.5542Z" fill="white"/>
<path fill-rule="evenodd" clip-rule="evenodd" d="M9.57023 13.7897C9.43523 13.8297 9.30073 13.8697 9.16623 13.9142C9.02773 13.9572 8.89873 13.9247 8.77823 13.8627C8.73923 13.8452 8.69573 13.8002 8.69023 13.7647C8.64423 13.4277 8.62523 13.0952 8.87073 12.8092C9.04173 12.6077 9.21373 12.5732 9.40823 12.7517C9.55723 12.8857 9.67923 13.0487 9.82423 13.2112C9.87023 13.1847 9.94273 13.1512 10.0062 13.1057C10.0204 13.0929 10.0318 13.0775 10.0398 13.0602C10.0478 13.0429 10.0522 13.0242 10.0527 13.0052C10.0167 12.5802 9.97623 12.1522 9.93523 11.7262C9.88923 11.2467 9.84123 10.7682 9.79323 10.2877C9.79055 10.2547 9.78451 10.222 9.77523 10.1902C9.71273 9.99869 9.82123 9.75169 10.0137 9.67419C10.0377 9.66369 10.1017 9.69219 10.1152 9.71869C10.1612 9.81319 10.1927 9.91369 10.2287 10.0122C10.2952 10.1927 10.3612 10.3752 10.4262 10.5557C10.445 10.602 10.4565 10.6509 10.4602 10.7007C10.4742 10.8742 10.4057 10.9287 10.2397 10.8837C10.2837 11.5377 10.3307 12.1902 10.3792 12.8677C10.4542 12.8067 10.5067 12.7547 10.5662 12.7137C10.6057 12.6867 10.6542 12.6742 10.6987 12.6547C10.7182 12.7037 10.7487 12.7492 10.7532 12.7977C10.7652 12.8822 10.7432 12.9722 10.7687 13.0487C10.7967 13.1287 10.8472 13.2342 10.9137 13.2597C10.9787 13.2842 11.1102 13.2462 11.1542 13.1897C11.2627 13.0562 11.3402 12.8972 11.4257 12.7452C11.4472 12.7067 11.4607 12.6647 11.4777 12.6247H11.5167C11.5332 12.7082 11.5437 12.7967 11.5697 12.8777C11.6007 12.9717 11.6312 13.0742 11.6882 13.1487C11.7862 13.2762 11.9227 13.2457 11.9567 13.0942C11.9772 12.9992 11.9682 12.8942 11.9532 12.7992C11.9337 12.6922 11.9762 12.5887 12.0807 12.5692C12.1097 12.5647 12.1682 12.6002 12.1767 12.6282C12.2472 12.8912 12.2417 13.1557 12.1322 13.4052C12.0442 13.6012 11.6957 13.6137 11.5172 13.4392C11.4847 13.4077 11.4552 13.3687 11.4132 13.3232C11.2772 13.4632 11.1367 13.5897 10.9307 13.6087C10.7257 13.6272 10.5597 13.5732 10.4467 13.3682C10.4327 13.4112 10.4187 13.4327 10.4187 13.4547C10.4272 13.6737 10.4387 13.8917 10.4467 14.1097C10.4622 14.5017 10.4402 14.8887 10.2812 15.2572C10.1523 15.5576 9.92065 15.8022 9.62773 15.9472C9.14823 16.1912 8.64223 16.3497 8.09823 16.3522C8.00323 16.3522 7.90473 16.3357 7.81223 16.3167C7.45023 16.2417 7.26873 15.9937 7.17923 15.6567C7.03873 15.1302 7.07173 14.6122 7.24823 14.0987C7.26323 14.0552 7.29173 14.0147 7.31323 13.9737C7.32548 13.9781 7.33826 13.9808 7.35123 13.9817C7.35123 14.1202 7.36673 14.2607 7.34973 14.3947C7.30523 14.7227 7.31873 15.0397 7.43423 15.3492C7.53973 15.6362 7.75473 15.7972 8.06023 15.8152C8.65473 15.8492 9.16273 15.6227 9.63523 15.2842C9.96223 15.0497 10.0922 14.7277 10.0922 14.3402C10.0907 14.0882 10.0922 13.8352 10.0922 13.5662C9.99773 13.6067 9.88823 13.6097 9.90373 13.7442C9.98373 14.4832 9.56573 14.9102 8.97323 15.2222C8.81323 15.3077 8.63673 15.3792 8.45873 15.4147C8.00323 15.5062 7.59423 15.1982 7.52423 14.7377C7.47473 14.4082 7.52973 14.0872 7.61073 13.7687C7.62473 13.7177 7.66423 13.6737 7.69123 13.6247C7.70168 13.6298 7.71278 13.6335 7.72423 13.6357C7.72423 13.6997 7.73023 13.7632 7.72423 13.8257C7.70023 14.0792 7.69873 14.3307 7.80523 14.5682C7.94673 14.8887 8.17623 14.9907 8.50823 14.8812C8.92073 14.7452 9.23873 14.4747 9.50623 14.1447C9.57523 14.0582 9.58023 13.9252 9.61473 13.8127C9.60223 13.8042 9.58523 13.7967 9.57023 13.7897ZM9.42023 13.3767C9.36023 13.3037 9.32673 13.2392 9.27523 13.2047C9.21773 13.1657 9.14123 13.1527 9.07523 13.1287C9.05873 13.1977 9.02323 13.2697 9.03423 13.3352C9.03873 13.3757 9.11173 13.4322 9.15623 13.4357C9.23573 13.4382 9.31523 13.4027 9.42023 13.3767ZM23.7607 12.3002C23.7742 12.5847 23.7907 12.8677 23.8037 13.1527C23.8267 13.6272 23.8622 14.1002 23.8607 14.5737C23.8576 14.7662 23.8102 14.9554 23.7222 15.1267C23.5067 15.5452 23.1277 15.5997 22.7222 15.3477C22.5972 15.2712 22.5017 15.1442 22.4057 15.0277C22.3502 14.9637 22.3092 14.9467 22.2597 15.0142C22.1869 15.1108 22.1201 15.2119 22.0597 15.3167C21.9047 15.5957 21.7577 15.8792 21.6042 16.1587C21.5734 16.2182 21.5305 16.2707 21.4782 16.3127C21.4322 16.3467 21.3612 16.3752 21.3082 16.3682C21.0417 16.3252 20.6592 15.8922 20.6632 15.6197C20.6647 15.3872 20.6947 15.1527 20.7297 14.9212C20.7512 14.7707 20.7997 14.6257 20.8367 14.4777C20.8552 14.4797 20.8732 14.4797 20.8902 14.4812C20.9002 14.5542 20.9202 14.6272 20.9202 14.7007C20.9167 15.0197 20.9407 15.3282 21.0707 15.6242C21.0872 15.6582 21.1017 15.6942 21.1222 15.7257C21.2197 15.8797 21.3447 15.8852 21.4482 15.7337C21.5032 15.6507 21.5442 15.5582 21.5942 15.4702C21.7777 15.1457 21.9547 14.8152 22.1477 14.4977C22.2717 14.2912 22.3932 14.2912 22.5562 14.4747C22.6622 14.5967 22.7562 14.7352 22.8737 14.8447C23.0507 15.0087 23.3002 14.9482 23.3832 14.7217C23.4287 14.5892 23.4617 14.4427 23.4562 14.3037C23.4327 13.6307 23.3972 12.9542 23.3627 12.2812C23.3537 12.1342 23.3317 11.9862 23.3332 11.8402C23.3372 11.7103 23.2916 11.5837 23.2057 11.4862C22.9577 11.1797 22.7192 10.8647 22.4712 10.5582C22.3447 10.4042 22.2662 10.2477 22.2952 10.0427C22.3107 9.94769 22.2927 9.84769 22.3002 9.75219C22.3042 9.71069 22.3217 9.64969 22.3512 9.63519C22.3812 9.62169 22.4447 9.64319 22.4722 9.67019C22.6657 9.85119 22.8547 10.0352 23.0402 10.2232C23.1202 10.3032 23.1052 10.3522 22.9872 10.4282C23.0602 10.5367 23.1347 10.6437 23.2062 10.7497C23.219 10.7468 23.2318 10.7445 23.2447 10.7427C23.2217 10.5682 23.2267 10.3837 23.1697 10.2247C23.0802 9.98019 23.1732 9.79919 23.3072 9.62119C23.3772 9.52769 23.4327 9.58919 23.4622 9.66419C23.5372 9.85569 23.6077 10.0462 23.6762 10.2412C23.7187 10.3597 23.7527 10.4827 23.7962 10.6242C23.7257 10.6197 23.6887 10.6152 23.6547 10.6122C23.6537 10.6212 23.6482 10.6272 23.6482 10.6352C23.6637 10.8867 23.6777 11.1402 23.6957 11.3902C23.6982 11.4187 23.7007 11.4502 23.7172 11.4732C23.8892 11.7177 24.0672 11.9622 24.2632 12.1972C24.2357 12.0152 24.2017 11.8307 24.1832 11.6472C24.1302 11.1507 24.0982 10.6517 24.0287 10.1582C23.9997 9.94719 24.0442 9.78019 24.1662 9.62119C24.2617 9.49769 24.3412 9.50019 24.3877 9.64719C24.4832 9.94969 24.5667 10.2582 24.6452 10.5677C24.6742 10.6797 24.6247 10.7227 24.4972 10.7277C24.5252 11.1262 24.5542 11.5237 24.5852 11.9192C24.6057 12.1722 24.6247 12.4242 24.6537 12.6732C24.6632 12.7432 24.6862 12.8202 24.7257 12.8807C24.9627 13.2417 25.2097 13.5982 25.4447 13.9592C25.5992 14.1972 25.6807 14.4587 25.6602 14.7457C25.6577 14.7852 25.6497 14.8232 25.6422 14.9012C25.3317 14.4457 25.0437 14.0252 24.7567 13.6027C24.7227 14.0542 24.8337 14.5057 24.6152 14.9217C24.6017 14.9217 24.5857 14.9217 24.5722 14.9227C24.5642 14.8607 24.5462 14.7997 24.5492 14.7357C24.5692 14.2407 24.5312 13.7467 24.4412 13.2602C24.4342 13.2272 24.4297 13.1902 24.4097 13.1652C24.2062 12.8732 23.9987 12.5847 23.7922 12.2942C23.7817 12.2957 23.7707 12.2982 23.7607 12.3002Z" fill="white"/>
<path fill-rule="evenodd" clip-rule="evenodd" d="M8.35809 9.99857C8.58009 10.1681 8.68159 10.3686 8.65659 10.6136C8.62359 10.9191 8.69509 11.2056 8.77459 11.4926C8.83309 11.6996 8.95809 11.7851 9.15959 11.7911C9.32509 11.7936 9.39109 11.7276 9.35609 11.5676C9.29459 11.2991 9.21959 11.0331 9.15009 10.7671C9.13674 10.7135 9.1164 10.6619 9.08959 10.6136C8.97909 10.4121 9.03659 10.2496 9.19309 10.1011C9.25959 10.0371 9.31759 10.0291 9.37309 10.0966C9.45859 10.2001 9.54859 10.3026 9.61409 10.4191C9.69659 10.5591 9.67109 10.6201 9.52459 10.7031C9.57209 10.9086 9.63809 11.1141 9.66059 11.3241C9.68359 11.5151 9.68759 11.7191 9.64959 11.9071C9.59259 12.1821 9.21209 12.3876 8.94559 12.3236C8.78909 12.2841 8.69509 12.1796 8.63509 12.0371C8.60959 11.9766 8.58909 11.9126 8.55859 11.8296C8.52309 11.8781 8.49509 11.9071 8.47309 11.9406C8.42859 12.0056 8.40059 12.0896 8.34209 12.1376C8.19159 12.2591 8.21459 12.4111 8.22759 12.5706C8.25909 13.0066 8.29109 13.4416 8.30909 13.8776C8.31659 14.0541 8.27209 14.2236 8.11809 14.3581C8.08909 14.0481 8.06109 13.7401 8.02859 13.4306C7.99609 13.1181 7.95909 12.8051 7.92209 12.4856C7.90359 12.4816 7.88659 12.4736 7.86609 12.4721C7.53259 12.4386 7.33409 12.2676 7.24559 11.9416C7.17459 11.6811 7.18509 11.4176 7.21159 11.1556C7.22209 11.0456 7.22609 10.9366 7.23459 10.8256C7.21409 10.8226 7.19709 10.8176 7.17759 10.8151C7.12859 10.9921 7.07709 11.1691 7.03409 11.3481C6.97009 11.6006 6.91959 11.8541 6.85559 12.1051C6.83567 12.1643 6.80366 12.2188 6.76159 12.2651C6.63409 12.4296 6.47659 12.4266 6.38209 12.2431C6.29813 12.0793 6.23241 11.9067 6.18609 11.7286C6.07559 11.3478 6.06852 10.9445 6.16559 10.5601C6.17659 10.5121 6.20409 10.4661 6.22259 10.4191C6.23409 10.4201 6.24709 10.4231 6.26059 10.4231C6.26559 10.4771 6.27209 10.5341 6.27759 10.5886C6.31009 10.8951 6.33459 11.2046 6.38259 11.5116C6.39809 11.6186 6.45659 11.7246 6.51709 11.8171C6.57959 11.9166 6.66759 11.9091 6.70309 11.8006C6.75609 11.6286 6.79809 11.4521 6.82009 11.2756C6.85609 10.9486 6.94309 10.6421 7.12259 10.3656C7.17359 10.2906 7.23609 10.2166 7.30959 10.1676C7.43609 10.0846 7.56809 10.1521 7.56309 10.3011C7.55687 10.4553 7.53458 10.6085 7.49659 10.7581C7.41309 11.0706 7.42109 11.3726 7.56809 11.6636C7.64209 11.8011 7.71859 11.8501 7.87659 11.8626C7.86709 11.7281 7.86509 11.5951 7.84809 11.4636C7.80359 11.0786 7.75459 10.6916 7.70309 10.3066C7.6869 10.1968 7.66335 10.0882 7.63259 9.98157C7.60859 9.87907 7.68609 9.65857 7.77959 9.61507C7.80709 9.60157 7.87709 9.62207 7.89109 9.64757C7.98659 9.83207 8.08159 10.0191 8.15859 10.2126C8.17629 10.256 8.17907 10.304 8.16649 10.3492C8.15391 10.3944 8.12668 10.4341 8.08909 10.4621C8.06709 10.4781 8.05409 10.5176 8.05559 10.5476C8.09259 10.9561 8.13359 11.3661 8.17259 11.7731C8.17359 11.7811 8.18159 11.7861 8.18759 11.7921C8.35459 11.6851 8.45109 11.4631 8.41609 11.2786C8.36559 11.0276 8.31259 10.7786 8.26909 10.5256C8.23759 10.3516 8.28309 10.1876 8.35809 9.99857ZM12.7756 10.0951C12.7716 10.1361 12.7696 10.1751 12.7621 10.2131C12.7066 10.5131 12.6951 10.8156 12.7586 11.1151C12.7856 11.2406 12.8491 11.3656 12.9166 11.4781C12.9476 11.5291 13.0286 11.5811 13.0841 11.5781C13.1291 11.5756 13.1891 11.5006 13.2121 11.4446C13.3406 11.1596 13.4521 10.8651 13.5886 10.5811C13.6731 10.4041 13.7801 10.2351 13.8926 10.0751C13.9336 10.0186 14.0381 9.94407 14.0841 9.96207C14.1846 9.99757 14.2286 10.1046 14.2141 10.2226C14.1966 10.3551 14.1651 10.4876 14.1596 10.6201C14.1491 10.8926 14.1351 11.1661 14.1491 11.4381C14.1626 11.7306 14.3836 11.8541 14.6571 11.7366C15.0716 11.5596 15.1766 11.3006 15.1486 10.8836C15.1281 10.5656 15.0491 10.2476 14.9906 9.93157C14.9556 9.72557 15.0871 9.59157 15.1791 9.41357C15.3296 9.58907 15.3716 9.77807 15.3971 9.96557C15.4421 10.2766 15.4596 10.5911 15.5071 10.9031C15.5411 11.1321 15.6191 11.3506 15.7731 11.5331C15.8406 11.6136 15.9191 11.6786 16.0331 11.6416C16.1506 11.6061 16.1871 11.5066 16.1971 11.3961C16.2226 11.1121 16.1631 10.8371 16.0791 10.5686C16.0264 10.4008 15.9694 10.2344 15.9081 10.0696C15.8741 9.98007 15.8826 9.91057 15.9476 9.84057C15.9961 9.78857 16.0251 9.72057 16.0621 9.66007C16.1271 9.54607 16.1681 9.53607 16.2686 9.61357C16.4651 9.76807 16.5826 9.97407 16.6466 10.2096C16.6571 10.2486 16.6316 10.3011 16.6221 10.3451C16.5791 10.3366 16.5346 10.3331 16.4961 10.3161C16.4581 10.3006 16.4261 10.2716 16.3691 10.2331C16.4171 10.4191 16.4606 10.5761 16.4961 10.7381C16.5501 10.9966 16.5881 11.2591 16.5116 11.5211C16.5001 11.5656 16.4901 11.6106 16.4746 11.6551C16.3041 12.1121 15.9356 12.2051 15.5681 11.8841C15.4896 11.8151 15.4086 11.7501 15.3411 11.6941C15.2121 11.8151 15.0641 11.9606 14.9076 12.0941C14.8506 12.1456 14.7721 12.1756 14.6976 12.2051C14.3616 12.3391 14.0646 12.2081 13.9351 11.8721C13.8281 11.6016 13.8471 11.3191 13.8651 11.0376C13.8686 10.9736 13.8651 10.9076 13.8651 10.8426C13.8512 10.8387 13.8372 10.8352 13.8231 10.8321C13.7936 10.8911 13.7591 10.9491 13.7366 11.0126C13.6421 11.2636 13.5581 11.5186 13.4611 11.7691C13.3226 12.1301 13.1111 12.1561 12.8676 11.8561C12.4436 11.3271 12.4626 10.7536 12.6941 10.1596C12.7046 10.1346 12.7251 10.1111 12.7401 10.0881C12.7511 10.0936 12.7632 10.0966 12.7756 10.0971M17.9376 11.0151C17.9141 10.7781 17.9286 10.5261 17.8526 10.3091C17.8221 10.2277 17.8085 10.1409 17.8126 10.0541C17.8167 9.96728 17.8385 9.88221 17.8766 9.80407C17.9016 9.75457 17.9571 9.68957 18.0016 9.68657C18.0461 9.68357 18.1161 9.74057 18.1366 9.78807C18.2631 10.0901 18.3851 10.3916 18.4926 10.7011C18.5461 10.8576 18.4961 10.9121 18.3376 10.8991C18.3501 11.1806 18.3606 11.4606 18.3801 11.7396C18.3811 11.7776 18.4151 11.8146 18.4356 11.8521C18.7976 12.4656 19.1691 13.0746 19.5181 13.6956C19.6916 14.0011 19.8261 14.3301 19.8761 14.6851C19.8866 14.7561 19.8846 14.8311 19.8871 14.9046C19.8739 14.912 19.8604 14.9188 19.8466 14.9251C19.8156 14.8841 19.7776 14.8466 19.7571 14.8006C19.4246 14.0136 18.9681 13.2956 18.5136 12.5736C18.4906 12.5396 18.4671 12.5076 18.4226 12.4451C18.4456 12.7241 18.4671 12.9696 18.4866 13.2126C18.5311 13.7511 18.6366 14.2871 18.5721 14.8291C18.5401 15.0856 18.4611 15.3351 18.3946 15.5846C18.3811 15.6446 18.3341 15.6966 18.3006 15.7506C18.2826 15.7461 18.2626 15.7436 18.2461 15.7396C18.2461 15.6751 18.2336 15.6076 18.2486 15.5451C18.3731 15.0616 18.3286 14.5711 18.2726 14.0836C18.2001 13.4376 18.1111 12.7941 18.0391 12.1486C18.0106 11.8986 17.9546 11.6711 17.7901 11.4686C17.5486 11.1656 17.3371 10.8436 17.1041 10.5341C17.0351 10.4436 16.9376 10.3746 16.8631 10.2881C16.8201 10.2411 16.7766 10.1786 16.7691 10.1206C16.7539 9.9659 16.7487 9.81041 16.7536 9.65507C16.7536 9.61157 16.7786 9.54857 16.8101 9.53057C16.8431 9.51557 16.9116 9.53157 16.9436 9.56007C17.1896 9.78257 17.4326 10.0081 17.6691 10.2401C17.7101 10.2791 17.7156 10.3556 17.7376 10.4171C17.6721 10.4306 17.6086 10.4466 17.5336 10.4636C17.6556 10.6421 17.7831 10.8336 17.9146 11.0246C17.9221 11.0206 17.9286 11.0166 17.9376 11.0136M25.9426 10.5651C25.9681 10.8796 25.9941 11.2051 26.0216 11.5286C26.0761 12.1696 26.1341 12.8076 26.1896 13.4476C26.2345 13.8947 26.2167 14.3459 26.1366 14.7881C26.0206 15.3996 25.7571 15.9126 25.1436 16.1611C24.9641 16.2341 24.7681 16.2721 24.5771 16.3211C24.5246 16.3326 24.4661 16.3221 24.4101 16.3221C24.4051 16.3071 24.3976 16.2946 24.3931 16.2801C24.4486 16.2281 24.4991 16.1716 24.5581 16.1261C24.7586 15.9721 24.9666 15.8321 25.1626 15.6741C25.6321 15.2911 25.8541 14.7891 25.8221 14.1921C25.7884 13.5763 25.7408 12.9613 25.6796 12.3476C25.6196 11.7226 25.5436 11.0986 25.4706 10.4746C25.4516 10.3121 25.4246 10.1511 25.4006 9.98957C25.3811 9.87257 25.5281 9.57557 25.6351 9.54207C25.6606 9.53507 25.7231 9.56757 25.7366 9.59807C25.8666 9.87057 25.9896 10.1446 26.1111 10.4211C26.1261 10.4636 26.1161 10.5151 26.1186 10.5651H25.9426Z" fill="white"/>
<path fill-rule="evenodd" clip-rule="evenodd" d="M18.4501 16.4241C18.5176 16.3906 18.5821 16.3446 18.6516 16.3256C19.1171 16.1986 19.4441 15.8856 19.7596 15.5476C20.0476 15.2396 20.1276 14.8751 20.0956 14.4666C20.0581 13.9616 20.0426 13.4531 20.0006 12.9481C19.9486 12.3201 19.8786 11.6966 19.8121 11.0711C19.7887 10.8505 19.7596 10.6306 19.7246 10.4116C19.7155 10.3453 19.7001 10.28 19.6786 10.2166C19.6416 10.0936 19.6581 9.98759 19.7516 9.89359C19.8406 9.81109 19.9226 9.72309 20.0216 9.62109C20.0556 9.67659 20.0951 9.71759 20.1101 9.76359C20.1886 10.0271 20.2666 10.2936 20.3371 10.5606C20.3746 10.6991 20.3406 10.7266 20.1766 10.6951C20.1766 10.8306 20.1671 10.9636 20.1776 11.0946C20.2526 12.1686 20.4171 13.2371 20.4041 14.3181C20.3986 14.7221 20.3936 15.1271 20.2076 15.4986C20.0396 15.8331 19.7866 16.1031 19.4871 16.3271C19.4064 16.3862 19.3131 16.4259 19.2146 16.4431C19.0116 16.4746 18.8066 16.4866 18.6021 16.5011C18.5551 16.5036 18.5066 16.4821 18.4591 16.4731C18.4569 16.4566 18.4538 16.4403 18.4501 16.4241ZM21.1151 10.8006C21.1386 11.0521 21.1561 11.2811 21.1831 11.5116C21.2531 12.1356 21.3256 12.7606 21.4021 13.3836C21.4386 13.6861 21.4931 13.9881 21.5351 14.2906C21.5871 14.6746 21.5091 15.0341 21.3311 15.3716C21.2996 15.4316 21.2406 15.4751 21.1941 15.5256C21.1796 15.5231 21.1656 15.5181 21.1521 15.5161C21.1396 15.4621 21.1111 15.4046 21.1226 15.3591C21.2306 14.9146 21.1586 14.4751 21.0996 14.0341C21.0151 13.4291 20.9456 12.8206 20.8601 12.2161C20.7701 11.5896 20.6791 10.9631 20.5746 10.3391C20.5301 10.0671 20.5776 9.83409 20.7476 9.62059C20.8421 9.50209 20.9231 9.50859 20.9811 9.64509C21.0371 9.77759 21.0726 9.91309 21.1276 10.0456C21.2041 10.2321 21.2946 10.4111 21.3706 10.5976C21.3991 10.6666 21.4016 10.7456 21.4151 10.8176C21.3441 10.8211 21.2716 10.8256 21.1996 10.8256C21.1796 10.8251 21.1611 10.8151 21.1151 10.8006ZM10.7916 11.4186C10.8446 11.3741 10.8996 11.3251 10.9541 11.2811C11.1871 11.0901 11.4236 10.9031 11.6531 10.7061C11.7421 10.6281 11.8106 10.5251 11.8891 10.4376C11.7016 10.1581 11.7206 9.85909 11.9311 9.67959C12.0216 9.60259 12.1216 9.55909 12.2426 9.61409C12.3581 9.67059 12.3916 9.77309 12.3786 9.88859C12.3676 9.99559 12.3341 10.1016 12.3151 10.2051C12.3016 10.2801 12.3056 10.3586 12.2856 10.4306C12.2667 10.4802 12.2366 10.5247 12.1976 10.5606C12.1526 10.6051 12.0841 10.6311 12.0461 10.6791C11.7541 11.0496 11.3676 11.2826 10.9331 11.4466C10.8976 11.4596 10.8556 11.4581 10.8156 11.4631C10.8081 11.4491 10.8006 11.4336 10.7916 11.4186ZM12.1191 9.92359C12.0976 9.92009 12.0761 9.91309 12.0556 9.91009C12.0421 9.98009 12.0261 10.0511 12.0136 10.1206L12.0656 10.1301C12.0851 10.0601 12.1001 9.99259 12.1191 9.92359ZM6.58958 14.4871C6.63308 14.6641 6.63208 14.8126 6.59508 14.9721C6.55058 15.1671 6.53008 15.3671 6.50308 15.5646C6.49908 15.5956 6.50308 15.6346 6.51958 15.6611C6.55258 15.7146 6.58608 15.7846 6.63558 15.8061C6.66508 15.8181 6.73108 15.7481 6.77408 15.7111C6.79958 15.6886 6.81208 15.6476 6.84058 15.6356C6.86308 15.6271 6.91658 15.6376 6.92358 15.6561C6.99108 15.8041 6.86608 16.1226 6.71658 16.1936C6.55708 16.2696 6.38608 16.2041 6.34758 16.0146C6.30658 15.8246 6.27658 15.6171 6.30658 15.4286C6.35458 15.1341 6.45358 14.8481 6.53358 14.5581C6.54008 14.5366 6.56308 14.5211 6.58958 14.4871ZM22.3686 12.4081L22.0466 11.8421C21.8666 11.9311 21.8246 11.9061 21.8336 11.7241C21.8366 11.6781 21.8211 11.6286 21.8321 11.5871C21.8461 11.5406 21.8731 11.4771 21.9106 11.4621C21.9466 11.4506 22.0221 11.4811 22.0451 11.5151C22.1171 11.6271 22.1726 11.7491 22.2346 11.8681C22.2606 11.9176 22.2846 11.9721 22.3356 12.0196C22.3356 11.9276 22.3341 11.8391 22.3356 11.7466C22.3391 11.6321 22.3276 11.5111 22.3581 11.4026C22.3786 11.3316 22.4561 11.2716 22.5171 11.2211C22.5371 11.2031 22.6111 11.2121 22.6236 11.2316C22.6701 11.3011 22.7126 11.3771 22.7311 11.4561C22.7476 11.5211 22.7136 11.5796 22.6316 11.5366C22.5126 11.4766 22.4741 11.5391 22.4706 11.6381C22.4631 11.8241 22.4666 12.0071 22.4591 12.1921C22.4581 12.2596 22.4351 12.3276 22.4211 12.3981C22.4036 12.4031 22.3851 12.4051 22.3686 12.4081ZM6.26758 13.7866C6.44458 13.5041 6.68008 13.2866 6.96308 13.1236C7.14258 13.0201 7.33758 12.9426 7.53108 12.8601C7.58808 12.8346 7.66608 12.7786 7.70458 12.8916C7.74408 13.0046 7.71058 13.0891 7.61108 13.1291C7.48658 13.1776 7.35358 13.2091 7.23558 13.2701C6.93458 13.4236 6.64008 13.5886 6.34208 13.7501C6.31758 13.7636 6.29308 13.7751 6.26758 13.7866ZM17.9061 15.8936C17.7001 16.0706 17.5101 16.2746 17.2161 16.3126C17.0241 16.3386 16.9231 16.2186 16.9666 16.0291C16.9821 15.9626 16.9951 15.8951 17.0136 15.8136C16.9166 15.8286 16.8416 15.8421 16.7581 15.8571C16.8001 15.7531 17.0916 15.5516 17.1811 15.5651C17.2106 15.5691 17.2496 15.6316 17.2481 15.6631C17.2456 15.7381 17.2131 15.8111 17.2051 15.8851C17.1986 15.9396 17.2116 15.9956 17.2141 16.0511C17.2701 16.0466 17.3326 16.0511 17.3826 16.0341C17.4956 15.9921 17.6036 15.9341 17.7161 15.8886C17.7691 15.8666 17.8291 15.8571 17.8851 15.8416C17.8906 15.8591 17.9001 15.8776 17.9061 15.8936ZM23.5051 15.6051C23.5481 15.6101 23.5916 15.6061 23.6301 15.6196C23.7051 15.6401 23.7416 15.6916 23.7086 15.7716C23.6946 15.8066 23.6756 15.8396 23.6571 15.8716C23.6151 15.9546 23.5976 16.0171 23.7301 16.0136C23.7601 16.0136 23.8131 16.0376 23.8166 16.0606C23.8246 16.0946 23.8146 16.1511 23.7871 16.1726C23.6546 16.2786 23.5066 16.3576 23.3316 16.3521C23.2961 16.3511 23.2401 16.3226 23.2351 16.2951C23.2246 16.2591 23.2416 16.2041 23.2661 16.1726C23.3081 16.1216 23.3691 16.0836 23.4136 16.0356C23.4631 15.9826 23.4696 15.9211 23.4031 15.8751C23.3366 15.8291 23.2406 15.7886 23.2986 15.6956C23.3341 15.6401 23.4236 15.6171 23.4901 15.5786C23.4941 15.5871 23.5011 15.5956 23.5051 15.6051ZM15.2411 12.9481C15.2551 12.9326 15.2491 12.9376 15.2436 12.9441C15.2046 13.0166 15.1636 13.1221 15.0691 13.0876C15.0292 13.0689 14.9934 13.0424 14.9639 13.0097C14.9344 12.977 14.9116 12.9387 14.8971 12.8971C14.8656 12.7821 14.8781 12.6536 14.8726 12.5316C14.8871 12.5301 14.9011 12.5271 14.9161 12.5246C14.9661 12.6391 15.0171 12.7556 15.0651 12.8706C15.0831 12.8696 15.1021 12.8671 15.1186 12.8661C15.1481 12.7441 15.1756 12.6201 15.2051 12.4981L15.2391 12.4946C15.3006 12.5996 15.3616 12.7066 15.4226 12.8151C15.4406 12.8141 15.4551 12.8101 15.4711 12.8091L15.5296 12.3596C15.6331 12.4906 15.6501 12.6101 15.6516 12.7366C15.6516 12.8396 15.6261 12.9451 15.5226 12.9746C15.4491 12.9961 15.3571 12.9606 15.2411 12.9481ZM21.9521 13.4581C21.9831 13.4071 22.0036 13.3436 22.0476 13.3036C22.1801 13.1886 22.3221 13.0836 22.4576 12.9731C22.6066 12.8491 22.7501 12.7221 22.9016 12.5996C22.9301 12.5766 22.9821 12.5486 23.0066 12.5596C23.0361 12.5731 23.0511 12.6271 23.0586 12.6636C23.0786 12.7691 23.0481 12.8491 22.9516 12.9081C22.6671 13.0851 22.3871 13.2696 22.1031 13.4476C22.0691 13.4681 22.0311 13.4796 21.9916 13.4961C21.9791 13.4827 21.966 13.47 21.9521 13.4581ZM25.0801 11.2251C25.0676 11.1361 25.0661 11.0456 25.0421 10.9586C24.9886 10.7551 24.9386 10.5466 24.8566 10.3541C24.8076 10.2331 24.8051 10.1401 24.8781 10.0406C24.9476 9.94659 24.9986 9.94309 25.0391 10.0476C25.1051 10.2196 25.1721 10.3936 25.1946 10.5721C25.2191 10.7481 25.1896 10.9286 25.1781 11.1066C25.1756 11.1486 25.1441 11.1876 25.1271 11.2276C25.1115 11.226 25.0958 11.2252 25.0801 11.2251ZM19.0501 10.7311C19.0501 10.6481 19.0391 10.5861 19.0531 10.5301C19.1061 10.3136 19.0326 10.1446 18.8826 9.99659C18.7676 9.88109 18.7641 9.75409 18.8846 9.64959C18.9141 9.62509 18.9941 9.61759 19.0216 9.64009C19.2691 9.83609 19.3211 10.4581 19.1176 10.6991C19.1101 10.7081 19.0971 10.7091 19.0501 10.7311ZM12.1591 11.6151C12.1991 11.8091 12.0001 12.0671 11.7821 12.0791C11.6546 12.0856 11.5281 11.9581 11.5271 11.8041C11.5221 11.5581 11.6621 11.3806 11.8321 11.2246C11.8416 11.2156 11.8631 11.2211 11.9126 11.2156C11.8656 11.3121 11.8246 11.3876 11.7946 11.4626C11.7636 11.5356 11.7306 11.6101 11.7216 11.6866C11.7151 11.7301 11.7431 11.8086 11.7761 11.8226C11.8191 11.8401 11.8916 11.8276 11.9351 11.8011C12.0121 11.7546 12.0761 11.6871 12.1591 11.6151Z" fill="white"/>
<path fill-rule="evenodd" clip-rule="evenodd" d="M19.3361 11.3331C19.3761 11.2286 19.4191 11.1241 19.4636 11.0131C19.5491 11.1156 19.5651 11.4001 19.4981 11.4846C19.4446 11.5516 19.3741 11.5581 19.3076 11.5061C19.2326 11.4471 19.1741 11.4461 19.0966 11.5071C19.0046 11.5821 18.9411 11.5631 18.9116 11.4516C18.8876 11.3616 18.8911 11.2671 18.8836 11.1766C18.8986 11.1711 18.9156 11.1671 18.9296 11.1626C18.9681 11.2261 19.0046 11.2901 19.0571 11.3801C19.1006 11.2681 19.1306 11.1831 19.1756 11.0656C19.2226 11.1771 19.2576 11.2516 19.2911 11.3296C19.3056 11.3296 19.3206 11.3321 19.3361 11.3331ZM11.3011 14.8436C11.3216 14.6676 11.3406 14.5111 11.3576 14.3546C11.1251 14.3231 11.0731 14.2461 11.1561 14.0766C11.1801 14.0286 11.2476 13.9571 11.2846 13.9646C11.3536 13.9761 11.4421 14.0191 11.4741 14.0781C11.5746 14.2586 11.5001 14.6621 11.3571 14.8141C11.3506 14.8231 11.3351 14.8256 11.3011 14.8436ZM8.59014 9.5301C8.60464 9.6251 8.60714 9.6891 8.62614 9.7476C8.63864 9.7911 8.67414 9.8266 8.69714 9.8671C8.73464 9.8431 8.78064 9.8266 8.80664 9.7956C8.84614 9.7386 8.87264 9.6736 8.93264 9.6111C8.93914 9.6626 8.93914 9.7156 8.95564 9.7601C8.97614 9.8071 9.01514 9.8456 9.04464 9.8876C9.07364 9.8516 9.10614 9.8191 9.13264 9.7806C9.14764 9.7591 9.15414 9.7326 9.16914 9.7031C9.24964 9.8116 9.24114 9.9446 9.15214 10.0211C9.04114 10.1156 8.97214 10.0271 8.90514 9.9541C8.72164 10.0711 8.64864 10.0756 8.56114 9.9766C8.46014 9.8591 8.45864 9.6891 8.59014 9.5301ZM22.8976 14.1301C22.8906 14.0666 22.8771 14.0286 22.8841 13.9966C22.9416 13.8051 22.8646 13.6741 22.7131 13.5661C22.6026 13.4891 22.6026 13.3956 22.7151 13.3181C22.7506 13.2941 22.8246 13.2851 22.8601 13.3056C23.0886 13.4381 23.1536 13.8686 22.9816 14.0646C22.9671 14.0821 22.9456 14.0946 22.8976 14.1301ZM14.6351 10.7681C14.6351 10.7116 14.6326 10.6556 14.6351 10.5996C14.6506 10.3516 14.6036 10.1201 14.4631 9.9086C14.4391 9.8741 14.4186 9.8131 14.4326 9.7806C14.4579 9.7309 14.4996 9.6915 14.5506 9.6691C14.5736 9.6621 14.6371 9.7181 14.6551 9.7566C14.7636 9.9871 14.7851 10.2316 14.7566 10.4796C14.7461 10.5801 14.7166 10.6781 14.6951 10.7776C14.6751 10.7756 14.6546 10.7706 14.6351 10.7681ZM6.80014 10.3211C6.81064 10.1096 6.91964 9.9361 6.83564 9.7471C6.80414 9.7596 6.78614 9.7716 6.76564 9.7771C6.71814 9.7841 6.66764 9.7881 6.61914 9.7931C6.63014 9.7416 6.62564 9.6771 6.65614 9.6401C6.71814 9.5666 6.78314 9.4606 6.90214 9.5091C7.01014 9.5546 7.01514 9.6671 7.00814 9.7696C6.99814 9.9636 6.91964 10.1296 6.80014 10.3211Z" fill="white"/>
</svg>
