<svg width="24" height="24" viewBox="0 0 24 24" fill="none" xmlns="http://www.w3.org/2000/svg">
<path opacity="0.5" d="M5 8.515C5 4.917 8.134 2 12 2C15.866 2 19 4.917 19 8.515C19 12.085 16.766 16.25 13.28 17.74C12.8751 17.9118 12.4398 18.0003 12 18.0003C11.5602 18.0003 11.1249 17.9118 10.72 17.74C7.234 16.25 5 12.084 5 8.515Z" stroke="#F3C95B" stroke-width="1.5"/>
<path d="M14 9C14 9.53043 13.7893 10.0391 13.4142 10.4142C13.0391 10.7893 12.5304 11 12 11C11.4696 11 10.9609 10.7893 10.5858 10.4142C10.2107 10.0391 10 9.53043 10 9C10 8.46957 10.2107 7.96086 10.5858 7.58579C10.9609 7.21071 11.4696 7 12 7C12.5304 7 13.0391 7.21071 13.4142 7.58579C13.7893 7.96086 14 8.46957 14 9Z" stroke="#F3C95B" stroke-width="1.5"/>
<path d="M20.96 15.5C21.626 16.102 22 16.782 22 17.5C22 19.985 17.523 22 12 22C6.477 22 2 19.985 2 17.5C2 16.782 2.374 16.102 3.04 15.5" stroke="#F3C95B" stroke-width="1.5" stroke-linecap="round"/>
</svg>
