<svg width="186" height="169" viewBox="0 0 186 169" fill="none" xmlns="http://www.w3.org/2000/svg">
<path d="M48.2132 26.6927L50.0666 23.818L84.2816 45.8941L114.041 26.6927L84.2843 7.494L50.0693 29.5674L48.2132 26.6927L46.3597 23.818L82.4282 0.54508C83.5549 -0.181693 85.0111 -0.181693 86.1377 0.54508L122.206 23.818C123.187 24.4502 123.773 25.5255 123.773 26.6927C123.773 27.8599 123.187 28.9352 122.206 29.5674L86.1377 52.8403C85.0111 53.5671 83.5549 53.5671 82.4282 52.8403L46.3597 29.5674C45.379 28.9352 44.7927 27.8599 44.7927 26.6927C44.7927 25.5255 45.379 24.4502 46.3597 23.818L48.2132 26.6927Z" fill="url(#paint0_linear_24_4)"/>
<path d="M116.911 32.9851L116.889 40.8526C117.765 40.758 118.651 40.7121 119.545 40.7121H119.783L120.02 40.7337C120.399 40.7743 120.777 40.8067 121.155 40.8391C121.944 40.9039 122.82 40.9769 123.733 41.1228L123.779 26.7035L116.938 26.6819L116.911 32.9851Z" fill="url(#paint1_linear_24_4)"/>
<path d="M80.8618 49.4469L80.8672 51.8379L80.9483 84.4022L80.9618 90.6865C80.9672 91.851 81.5643 92.9317 82.5315 93.5558C82.599 93.5963 82.6693 93.6368 82.7368 93.6747C83.8283 94.2772 85.163 94.2312 86.2113 93.5639L100.428 84.5508C98.7961 82.8271 97.4506 80.9737 96.3915 79.0095L87.7891 84.4644L87.7081 51.8271L87.7027 49.428L80.8618 49.4469Z" fill="url(#paint2_linear_24_4)"/>
<path d="M51.6336 26.6658L51.9551 65.7629L86.2323 87.7985L82.5336 93.5532L46.7002 70.518C45.7275 69.8939 45.1385 68.824 45.1304 67.6677L44.7927 26.7225L51.6336 26.6658Z" fill="url(#paint3_linear_24_4)"/>
<path d="M107.201 84.4779C110.626 87.0419 113.496 90.0841 115.665 93.7747C116.243 94.7608 116.824 95.7416 117.421 96.7088C118.483 98.4271 120.628 98.4325 121.669 96.6953C123.1 94.3042 124.546 91.9321 126.361 89.8031C128.336 87.4904 130.641 85.5424 133.002 83.6404C137.766 79.8093 140.465 74.8002 140.97 68.7078C141.905 57.5603 134.429 47.7907 123.422 45.705C122.144 45.4591 120.831 45.4132 119.531 45.2754C109.484 45.2619 100.298 52.6458 98.4847 62.518C96.8205 71.5878 99.8248 78.9474 107.201 84.4779Z" fill="url(#paint4_linear_24_4)"/>
<path d="M27.4603 121.156C26.0166 119.914 24.2815 118.992 22.3052 118.389C20.3256 117.787 18.0981 117.495 15.626 117.495H1.19247C0.877604 117.495 0.572787 117.622 0.348362 117.843C0.127286 118.065 0 118.373 0 118.688V157.105C0 157.419 0.127286 157.724 0.348362 157.949C0.569438 158.17 0.877604 158.297 1.19247 158.297H5.58384C5.8987 158.297 6.20352 158.17 6.42794 157.949C6.64902 157.728 6.77631 157.419 6.77631 157.105V146.004H15.626C18.1014 146.004 20.3323 145.702 22.3153 145.076C24.2982 144.453 26.0333 143.498 27.477 142.215C28.9207 140.936 30.0161 139.375 30.7362 137.576C31.4564 135.777 31.8014 133.754 31.8014 131.527C31.8014 129.37 31.453 127.403 30.7295 125.658C30.006 123.913 28.904 122.396 27.4603 121.156ZM6.77631 123.719H15.4619C17.1133 123.719 18.5436 123.903 19.7561 124.248C20.972 124.596 21.9669 125.102 22.7775 125.759C23.5781 126.408 24.1609 127.186 24.5662 128.147C24.9682 129.108 25.1859 130.261 25.1859 131.637C25.1859 133.051 24.9682 134.247 24.5595 135.241C24.1508 136.236 23.5647 137.044 22.7574 137.72C21.9434 138.4 20.952 138.923 19.7394 139.281C18.5302 139.64 17.0999 139.83 15.4552 139.83H6.77631V123.719Z" fill="#001833"/>
<path d="M41.5291 127.041H37.3018C36.987 127.041 36.6822 127.169 36.4577 127.39C36.2367 127.611 36.1094 127.919 36.1094 128.234V157.101C36.1094 157.416 36.2367 157.721 36.4577 157.945C36.6788 158.166 36.987 158.293 37.3018 158.293H41.5291C41.8439 158.293 42.1488 158.166 42.3732 157.945C42.5943 157.724 42.7215 157.416 42.7215 157.101V128.234C42.7215 127.919 42.5943 127.614 42.3732 127.39C42.1488 127.169 41.8439 127.041 41.5291 127.041Z" fill="#001833"/>
<path d="M42.2357 117.157C41.8639 116.785 41.4217 116.487 40.9327 116.296C40.447 116.101 39.9211 116.011 39.3885 116.011C38.866 116.011 38.3501 116.105 37.8711 116.296C37.3921 116.487 36.9567 116.778 36.5815 117.14C36.1997 117.508 35.8915 117.954 35.6905 118.443C35.4895 118.932 35.3958 119.464 35.3958 120C35.3958 120.526 35.4929 121.049 35.6939 121.528C35.8948 122.01 36.1963 122.446 36.5681 122.817C36.9399 123.189 37.3754 123.491 37.8577 123.692C38.3401 123.893 38.8593 123.99 39.3852 123.99C39.9211 123.99 40.4537 123.896 40.9427 123.695C41.4318 123.494 41.8773 123.186 42.2458 122.804C42.6075 122.429 42.8989 121.993 43.0899 121.514C43.2841 121.035 43.3746 120.52 43.3746 119.997C43.3746 119.464 43.2841 118.939 43.0899 118.453C42.9023 117.971 42.6075 117.528 42.2357 117.157Z" fill="#001833"/>
<path d="M73.3765 149.069C73.1421 148.834 72.8172 148.707 72.4855 148.72C72.1539 148.734 71.8424 148.884 71.6247 149.139C70.6801 150.244 69.5513 151.065 68.1779 151.638C66.8012 152.211 65.2637 152.505 63.532 152.505C62.6376 152.505 61.8069 152.402 61.0298 152.194C60.2527 151.99 59.5292 151.685 58.8492 151.276C58.1625 150.864 57.5596 150.378 57.027 149.809C56.4944 149.24 56.0321 148.59 55.6402 147.846C54.8631 146.372 54.4612 144.667 54.4612 142.668C54.4612 140.668 54.8631 138.976 55.6369 137.523C56.0288 136.789 56.4877 136.146 57.0203 135.586C57.5529 135.027 58.1525 134.551 58.8391 134.146C60.2024 133.346 61.7366 132.94 63.5286 132.94C65.1498 132.94 66.5835 133.218 67.8697 133.754C69.1795 134.304 70.2949 135.044 71.2462 135.995C71.4806 136.23 71.8022 136.357 72.1338 136.343C72.4654 136.33 72.777 136.183 72.9913 135.931L75.4064 133.131C75.8151 132.656 75.7883 131.952 75.3461 131.51C73.9091 130.07 72.1606 128.947 70.1408 128.144C68.0975 127.33 65.8298 126.934 63.3611 126.934C60.4034 126.931 57.707 127.601 55.3555 128.958C53.0175 130.301 51.1584 132.183 49.8353 134.538C48.4988 136.91 47.8423 139.646 47.8423 142.668C47.8389 145.689 48.4955 148.432 49.832 150.824C50.4952 152.01 51.2891 153.075 52.2136 154.009C53.1381 154.944 54.1898 155.745 55.3622 156.411C57.7137 157.748 60.4068 158.407 63.3611 158.404C65.9839 158.404 68.3889 157.949 70.5327 157.014C72.6597 156.09 74.4551 154.776 75.8586 153.088C76.2539 152.616 76.2204 151.916 75.7849 151.48L73.3765 149.069Z" fill="#001833"/>
<path d="M97.9101 139.559L108.076 129.065C108.408 128.72 108.505 128.21 108.317 127.768C108.13 127.326 107.698 127.041 107.219 127.041H102.171C101.849 127.041 101.541 127.172 101.317 127.403L88.491 140.594V116.379C88.491 116.065 88.3637 115.76 88.1426 115.535C87.9215 115.314 87.6134 115.187 87.2985 115.187H83.0177C82.7028 115.187 82.398 115.314 82.1736 115.535C81.9525 115.756 81.8252 116.065 81.8252 116.379V157.101C81.8252 157.416 81.9525 157.721 82.1736 157.945C82.3946 158.166 82.7028 158.293 83.0177 158.293H87.2985C87.6134 158.293 87.9182 158.166 88.1426 157.945C88.3637 157.724 88.491 157.416 88.491 157.101V149.283L93.2977 144.319L102.275 157.761C102.496 158.092 102.868 158.29 103.266 158.29H108.371C108.813 158.29 109.218 158.046 109.426 157.657C109.634 157.268 109.607 156.793 109.359 156.428L97.9101 139.559Z" fill="#001833"/>
<path d="M144.865 117.492H140.531C140.216 117.492 139.911 117.619 139.687 117.84C139.465 118.061 139.338 118.369 139.338 118.684V141.458C139.338 143.294 139.094 144.878 138.628 146.228C138.162 147.578 137.482 148.693 136.575 149.625C135.66 150.559 134.595 151.253 133.329 151.728C132.063 152.201 130.592 152.448 128.897 152.448C127.202 152.448 125.729 152.197 124.459 151.722C123.186 151.243 122.114 150.542 121.19 149.598C120.272 148.657 119.585 147.534 119.116 146.188C118.647 144.845 118.4 143.27 118.4 141.455V118.681C118.4 118.366 118.272 118.061 118.051 117.837C117.83 117.616 117.522 117.488 117.207 117.488H112.816C112.501 117.488 112.196 117.616 111.972 117.837C111.751 118.058 111.623 118.366 111.623 118.681V141.455C111.623 144.935 112.293 148.003 113.687 150.606C114.38 151.902 115.234 153.061 116.246 154.06C117.257 155.061 118.423 155.905 119.729 156.589C122.345 157.955 125.42 158.618 128.897 158.618C132.374 158.618 135.443 157.959 138.042 156.589C139.338 155.905 140.497 155.061 141.499 154.06C142.5 153.058 143.348 151.899 144.031 150.603C145.401 148.003 146.061 144.935 146.061 141.458V118.684C146.061 118.369 145.934 118.064 145.713 117.84C145.488 117.619 145.18 117.492 144.865 117.492Z" fill="#001833"/>
<path d="M183.948 134.588C182.685 132.213 180.89 130.317 178.622 128.967C177.48 128.287 176.247 127.775 174.934 127.436C173.621 127.098 172.231 126.931 170.767 126.931C169.377 126.931 168.054 127.091 166.808 127.416C165.562 127.741 164.393 128.234 163.314 128.887C162.397 129.443 161.562 130.106 160.819 130.866V128.23C160.819 127.915 160.692 127.611 160.47 127.386C160.249 127.165 159.941 127.038 159.626 127.038H155.346C155.031 127.038 154.726 127.165 154.501 127.386C154.28 127.607 154.153 127.915 154.153 128.23V167.749C154.153 168.064 154.28 168.369 154.501 168.593C154.723 168.814 155.031 168.942 155.346 168.942H159.626C159.941 168.942 160.246 168.814 160.47 168.593C160.692 168.372 160.819 168.064 160.819 167.749V154.471C161.562 155.228 162.397 155.888 163.314 156.448C164.393 157.104 165.569 157.597 166.825 157.921C168.081 158.246 169.414 158.404 170.821 158.404C172.281 158.404 173.668 158.24 174.978 157.908C176.284 157.576 177.513 157.071 178.646 156.401C179.771 155.734 180.783 154.93 181.667 153.992C182.555 153.058 183.312 151.989 183.945 150.803C185.218 148.422 185.844 145.705 185.841 142.724C185.847 139.706 185.224 136.973 183.948 134.588ZM161.998 137.522C162.785 136.052 163.847 134.92 165.247 134.052C165.937 133.627 166.667 133.312 167.458 133.097C168.245 132.883 169.089 132.776 170 132.776C170.911 132.776 171.752 132.886 172.533 133.097C173.316 133.312 174.04 133.627 174.72 134.049C176.1 134.913 177.158 136.048 177.949 137.522C178.723 138.976 179.125 140.671 179.125 142.667C179.125 144.627 178.723 146.312 177.946 147.789C177.155 149.279 176.103 150.408 174.73 151.252C174.05 151.668 173.323 151.979 172.539 152.187C171.755 152.395 170.911 152.502 170 152.502C169.089 152.502 168.242 152.395 167.451 152.184C166.661 151.973 165.93 151.664 165.24 151.246C164.544 150.824 163.931 150.331 163.395 149.758C162.859 149.186 162.393 148.532 162.001 147.789C161.224 146.312 160.822 144.623 160.822 142.667C160.822 140.671 161.224 138.976 161.998 137.522Z" fill="#001833"/>
<path d="M1.51705 111V93.5455H13.0739V96.5881H5.20739V100.747H12.3068V103.79H5.20739V111H1.51705ZM16.3849 111H12.4304L18.456 93.5455H23.2116L29.2287 111H25.2741L20.902 97.5341H20.7656L16.3849 111ZM16.1378 104.139H25.4787V107.02H16.1378V104.139ZM40.3999 98.5653C40.3317 97.8778 40.0391 97.3437 39.522 96.9631C39.005 96.5824 38.3033 96.392 37.4169 96.392C36.8146 96.392 36.3061 96.4773 35.8913 96.6477C35.4766 96.8125 35.1584 97.0426 34.9368 97.3381C34.7209 97.6335 34.6129 97.9688 34.6129 98.3438C34.6016 98.6562 34.6669 98.929 34.8089 99.1619C34.9567 99.3949 35.1584 99.5966 35.4141 99.767C35.6697 99.9318 35.9652 100.077 36.3004 100.202C36.6357 100.321 36.9936 100.423 37.3743 100.509L38.9425 100.884C39.7038 101.054 40.4027 101.281 41.0391 101.565C41.6754 101.849 42.2266 102.199 42.6925 102.614C43.1584 103.028 43.5192 103.517 43.7749 104.08C44.0362 104.642 44.1697 105.287 44.1754 106.014C44.1697 107.082 43.897 108.009 43.3572 108.793C42.8232 109.571 42.0504 110.176 41.0391 110.608C40.0334 111.034 38.8203 111.247 37.3999 111.247C35.9908 111.247 34.7635 111.031 33.718 110.599C32.6783 110.168 31.8658 109.528 31.2805 108.682C30.701 107.83 30.397 106.776 30.3686 105.52H33.9396C33.9794 106.105 34.147 106.594 34.4425 106.986C34.7436 107.372 35.1442 107.665 35.6442 107.864C36.1499 108.057 36.7209 108.153 37.3572 108.153C37.9822 108.153 38.5249 108.062 38.9851 107.881C39.451 107.699 39.8118 107.446 40.0675 107.122C40.3232 106.798 40.451 106.426 40.451 106.006C40.451 105.614 40.3345 105.284 40.1016 105.017C39.8743 104.75 39.5391 104.523 39.0959 104.335C38.6584 104.148 38.1214 103.977 37.4851 103.824L35.5845 103.347C34.1129 102.989 32.951 102.429 32.0987 101.668C31.2464 100.906 30.8232 99.8807 30.8288 98.5909C30.8232 97.5341 31.1044 96.6108 31.6726 95.821C32.2464 95.0312 33.0334 94.4148 34.0334 93.9716C35.0334 93.5284 36.1697 93.3068 37.4425 93.3068C38.7379 93.3068 39.8686 93.5284 40.8345 93.9716C41.8061 94.4148 42.5618 95.0312 43.1016 95.821C43.6413 96.6108 43.9197 97.5256 43.9368 98.5653H40.3999ZM45.9929 96.5881V93.5455H60.3281V96.5881H54.9844V111H51.3366V96.5881H45.9929Z" fill="#001833"/>
<defs>
<linearGradient id="paint0_linear_24_4" x1="119.628" y1="90.4722" x2="70.8949" y2="2.53504" gradientUnits="userSpaceOnUse">
<stop stop-color="#FBD83D"/>
<stop offset="1" stop-color="#F7FDFF"/>
</linearGradient>
<linearGradient id="paint1_linear_24_4" x1="144.202" y1="76.854" x2="95.4687" y2="-11.0832" gradientUnits="userSpaceOnUse">
<stop stop-color="#FBD83D"/>
<stop offset="1" stop-color="#ECECEC"/>
</linearGradient>
<linearGradient id="paint2_linear_24_4" x1="101.096" y1="100.742" x2="52.3634" y2="12.8052" gradientUnits="userSpaceOnUse">
<stop stop-color="#FBD83D"/>
<stop offset="1" stop-color="#F5F5F5"/>
</linearGradient>
<linearGradient id="paint3_linear_24_4" x1="83.5746" y1="110.452" x2="34.8416" y2="22.5152" gradientUnits="userSpaceOnUse">
<stop stop-color="#FBD83D"/>
<stop offset="1" stop-color="white"/>
</linearGradient>
<linearGradient id="paint4_linear_24_4" x1="147.81" y1="89.0241" x2="102.616" y2="57.9874" gradientUnits="userSpaceOnUse">
<stop stop-color="#FBD83D"/>
<stop offset="1" stop-color="#F0EC7F"/>
</linearGradient>
</defs>
</svg>
