<svg width="32" height="12" viewBox="0 0 32 12" fill="none" xmlns="http://www.w3.org/2000/svg">
<path d="M31.8688 2.91826C31.8474 3.0074 31.8267 3.0969 31.8039 3.18569C31.5898 4.01866 30.9053 4.52179 30.0092 4.49897C29.6676 4.49041 29.3336 4.43942 29.0053 4.33173C28.8946 4.29536 28.7554 4.34421 28.6295 4.35527C28.4628 4.36989 28.2958 4.39806 28.1291 4.39841C26.5614 4.40162 24.9936 4.40055 23.4262 4.40055C23.3741 4.40055 23.3216 4.40055 23.2549 4.40055C23.2941 4.14203 23.3309 3.89849 23.3666 3.66315C24.0222 3.66315 24.6699 3.66315 25.3355 3.66315C25.3233 3.67812 25.333 3.67171 25.333 3.66529C25.3248 3.18391 25.3198 2.70253 25.3037 2.22114C25.3009 2.13164 25.2623 2.04036 25.227 1.95514C25.1007 1.64919 24.8698 1.4923 24.5368 1.49087C24.2756 1.4898 24.0143 1.49051 23.7531 1.49051C23.706 1.49051 23.6589 1.49051 23.5968 1.49051C23.6314 1.24804 23.6607 1.02554 23.6978 0.804101C23.7024 0.777358 23.7477 0.736708 23.7734 0.737421C24.2156 0.745622 24.6631 0.719949 25.0982 0.78128C25.7498 0.873277 26.2202 1.39388 26.3337 2.08743C26.3754 2.34345 26.3786 2.60625 26.3876 2.86655C26.3961 3.11794 26.3893 3.36968 26.3893 3.6307C26.4365 3.63426 26.4746 3.63961 26.5128 3.63961C27.0795 3.64033 27.6466 3.6364 28.2133 3.64282C28.33 3.64425 28.3747 3.5929 28.3864 3.49377C28.3946 3.42388 28.3957 3.35257 28.3961 3.28197C28.3968 2.80843 28.3957 2.33489 28.3968 1.86171C28.3979 1.3108 28.623 0.991661 29.1505 0.827635C29.36 0.762381 29.5805 0.733142 29.7961 0.6875C29.9467 0.6875 30.0973 0.6875 30.2479 0.6875C30.2818 0.696414 30.315 0.708895 30.3493 0.71353C31.0709 0.810163 31.598 1.27015 31.79 1.97475C31.82 2.08457 31.8432 2.19654 31.8692 2.30744C31.8688 2.51104 31.8688 2.71465 31.8688 2.91826ZM29.3686 1.70945C29.3796 1.84816 29.3964 1.96512 29.3971 2.08244C29.4003 2.52887 29.4025 2.97531 29.3953 3.42174C29.3935 3.53157 29.4328 3.57186 29.5334 3.57864C29.7097 3.59041 29.8857 3.61358 30.062 3.61715C30.4438 3.62464 30.6936 3.44243 30.7968 3.07622C30.891 2.74211 30.8889 2.40264 30.8 2.06746C30.7468 1.86706 30.6376 1.69269 30.4328 1.62637C30.0634 1.50692 29.7044 1.57574 29.3686 1.70945Z" fill="#50C917"/>
<path d="M22.8835 0.751921C22.8453 1.00046 22.8089 1.24008 22.7693 1.49753C22.714 1.49753 22.6623 1.49753 22.6105 1.49753C21.946 1.49753 21.2819 1.49717 20.6173 1.49824C20.5246 1.49824 20.4307 1.49967 20.339 1.51108C20.0674 1.54495 19.9236 1.71433 19.9361 1.97748C19.9486 2.23778 20.1109 2.41037 20.3736 2.4175C20.7101 2.42677 21.047 2.41714 21.3832 2.42427C21.5327 2.42748 21.6851 2.43889 21.8307 2.46992C22.3878 2.58937 22.7415 3.03438 22.7333 3.60419C22.7311 3.74896 22.7161 3.89694 22.6812 4.03708C22.568 4.49279 22.2344 4.71244 21.8025 4.7973C21.5827 4.84045 21.3547 4.86185 21.1305 4.86256C19.6556 4.86577 18.1806 4.86862 16.7056 4.85436C15.7859 4.84544 15.1771 4.24853 15.125 3.33248C15.0993 2.88212 15.0782 2.42998 15.2039 1.98782C15.4116 1.25684 15.9829 0.811826 16.7445 0.798276C17.2088 0.790075 17.6735 0.79685 18.1481 0.79685C18.1106 1.05109 18.0749 1.29499 18.0368 1.55529C17.858 1.55529 17.682 1.55494 17.5061 1.55529C17.3334 1.55565 17.1603 1.55208 16.9879 1.55921C16.6756 1.57205 16.4426 1.72181 16.3245 2.0085C16.2584 2.16896 16.2131 2.34832 16.2074 2.52055C16.1971 2.84183 16.1931 3.16845 16.2413 3.48438C16.297 3.84988 16.5482 4.06668 16.9158 4.08878C17.3483 4.11481 17.783 4.10804 18.217 4.10946C19.1691 4.11267 20.1216 4.11303 21.0738 4.11303C21.1445 4.11303 21.2162 4.1116 21.2851 4.09841C21.5731 4.04457 21.7379 3.83205 21.7144 3.55249C21.6908 3.27543 21.4924 3.09607 21.1962 3.09108C20.7801 3.08395 20.3632 3.09322 19.9478 3.07182C19.455 3.04615 19.0978 2.76909 18.9693 2.34725C18.8205 1.85874 18.9564 1.3442 19.3122 1.06714C19.596 0.846058 19.9321 0.754774 20.2805 0.748355C21.1305 0.733022 21.981 0.740154 22.8314 0.738728C22.8443 0.739084 22.8568 0.745146 22.8835 0.751921Z" fill="#50C917"/>
<path d="M31.8689 11.3108C31.5384 11.2509 31.2087 11.1856 30.8768 11.135C30.7847 11.1211 30.6844 11.1439 30.5902 11.1614C30.1877 11.2359 29.7851 11.2837 29.3804 11.1771C28.8997 11.0501 28.6267 10.7125 28.6102 10.2232C28.5931 9.71618 28.8276 9.35283 29.3179 9.2159C29.6081 9.13496 29.9168 9.11428 30.2187 9.08611C30.4243 9.06721 30.633 9.08254 30.8379 9.08254C30.9371 8.66142 30.7433 8.39898 30.3243 8.39149C29.8632 8.38329 29.4207 8.48706 28.9875 8.63611C28.9464 8.65037 28.9047 8.66214 28.8504 8.6789C28.8133 8.42715 28.7773 8.18432 28.7402 7.93258C29.4564 7.7033 30.168 7.49648 30.9267 7.64803C31.4803 7.75857 31.774 8.07699 31.845 8.63254C31.8493 8.66713 31.8607 8.70065 31.8685 8.73452C31.8689 9.59352 31.8689 10.4522 31.8689 11.3108ZM30.4717 9.69158C30.4707 9.68623 30.4696 9.68088 30.4685 9.67518C30.2776 9.70192 30.0813 9.70941 29.8972 9.76075C29.7066 9.81424 29.6177 9.99324 29.6352 10.2011C29.6502 10.3791 29.7558 10.5235 29.9482 10.5413C30.1459 10.5598 30.3522 10.5434 30.5485 10.5085C30.8775 10.45 30.8775 10.4386 30.8743 10.1016C30.8732 9.97114 30.9071 9.79891 30.839 9.72331C30.779 9.65628 30.5988 9.69764 30.4717 9.69158Z" fill="#50C917"/>
<path d="M20.2431 11.1942C19.8855 11.1942 19.5504 11.1942 19.2007 11.1942C19.2007 11.135 19.2007 11.0833 19.2007 11.0312C19.2007 10.3673 19.201 9.70333 19.2003 9.03974C19.2003 8.96914 19.2003 8.89782 19.1918 8.82758C19.1679 8.62682 19.0372 8.49025 18.8413 8.46886C18.6029 8.44318 18.3749 8.48348 18.1857 8.58118C18.1925 8.87357 18.2032 9.14921 18.2046 9.4252C18.2075 9.96506 18.2054 10.5053 18.2054 11.0451C18.2054 11.0926 18.2054 11.14 18.2054 11.1945C17.8578 11.1945 17.523 11.1945 17.1654 11.1945C17.1654 11.1432 17.1654 11.0926 17.1654 11.0419C17.1654 10.378 17.1593 9.71403 17.1676 9.05044C17.174 8.5334 16.942 8.39933 16.4577 8.48419C16.1672 8.53518 16.1687 8.54267 16.1687 8.83292C16.1687 9.5632 16.1687 10.2935 16.1687 11.0237C16.1687 11.0762 16.1687 11.1286 16.1687 11.1899C15.8128 11.1899 15.4702 11.1899 15.1105 11.1899C15.1105 11.1339 15.1105 11.0819 15.1105 11.0298C15.1105 10.1712 15.1102 9.31252 15.1105 8.45388C15.1109 8.0185 15.2215 7.87159 15.6437 7.75606C16.1658 7.61343 16.695 7.54354 17.2321 7.65051C17.377 7.67939 17.518 7.74179 17.6508 7.80883C17.7218 7.84449 17.7717 7.85198 17.8442 7.82167C18.356 7.60629 18.8849 7.54033 19.4284 7.67297C19.9055 7.78958 20.2042 8.12476 20.2217 8.61363C20.2463 9.29434 20.2378 9.97612 20.2431 10.6575C20.2446 10.8333 20.2431 11.0095 20.2431 11.1942Z" fill="#50C917"/>
<path d="M26.97 7.75407C26.97 7.69274 26.97 7.64603 26.97 7.59896C26.97 7.16536 26.9711 6.73176 26.9689 6.29852C26.9686 6.22934 26.9778 6.1812 27.0599 6.16801C27.374 6.11773 27.6873 6.06318 28.0206 6.00684C28.0206 6.06211 28.0206 6.10917 28.0206 6.15624C28.0206 7.58077 28.021 9.00531 28.0203 10.4295C28.0203 10.8374 27.9307 10.9622 27.5417 11.0817C27.0346 11.2375 26.5153 11.2753 25.9925 11.1975C25.2366 11.0852 24.7309 10.5165 24.6706 9.7231C24.6446 9.38257 24.6553 9.04346 24.7438 8.70934C24.9215 8.03898 25.3994 7.64104 26.0921 7.62713C26.3272 7.62249 26.5639 7.67848 26.7994 7.70985C26.8504 7.71663 26.8997 7.73553 26.97 7.75407ZM26.97 9.45138C26.97 9.27916 26.97 9.10657 26.97 8.93435C26.97 8.46045 26.97 8.46045 26.4903 8.41802C26.1195 8.38521 25.8494 8.56493 25.7552 8.92329C25.6681 9.25384 25.6688 9.58902 25.7573 9.91922C25.8558 10.2861 26.1074 10.4712 26.4871 10.4641C26.6013 10.4619 26.7148 10.4366 26.829 10.4281C26.9368 10.4199 26.9768 10.3749 26.9728 10.2605C26.9632 9.99089 26.97 9.72096 26.97 9.45138Z" fill="#50C917"/>
<path d="M23.0687 9.08359C23.103 8.55229 22.9392 8.37721 22.4321 8.39147C22.0127 8.40324 21.6084 8.49737 21.2133 8.63394C21.1723 8.64821 21.1302 8.66069 21.0695 8.67994C21.0356 8.44246 21.001 8.21282 20.9728 7.98212C20.9703 7.96037 21.0031 7.91972 21.0274 7.91187C21.5977 7.72895 22.173 7.56849 22.7815 7.60022C22.8742 7.60486 22.9674 7.61449 23.0588 7.63018C23.7436 7.74856 24.068 8.12404 24.0734 8.82329C24.0798 9.61988 24.0751 10.4168 24.0748 11.2134C24.0748 11.2398 24.0719 11.2658 24.0698 11.3072C23.9531 11.2872 23.8403 11.2758 23.7315 11.2484C23.3061 11.1403 22.8846 11.1186 22.4492 11.212C22.1369 11.2787 21.814 11.2562 21.5049 11.1496C21.0738 11.0009 20.8408 10.6803 20.8268 10.2204C20.8129 9.7511 21.0174 9.42163 21.4371 9.24476C21.7233 9.12424 22.0274 9.09286 22.3339 9.08573C22.5763 9.07895 22.8189 9.08359 23.0687 9.08359ZM23.0905 9.71794C22.7872 9.71794 22.5077 9.69976 22.2319 9.72329C21.9803 9.74469 21.8364 9.9408 21.8486 10.1819C21.86 10.4051 22.0217 10.5741 22.275 10.5616C22.5284 10.5495 22.7793 10.4857 23.0302 10.4393C23.0538 10.435 23.0869 10.3933 23.0877 10.3683C23.0923 10.1523 23.0905 9.93617 23.0905 9.71794Z" fill="#50C917"/>
<path d="M13.4757 0.6875H0V5.14901H13.4757V0.6875Z" fill="#50C917"/>
<path d="M13.4757 6.76953H0V11.231H13.4757V6.76953Z" fill="#50C917"/>
</svg>
