<svg width="24" height="24" viewBox="0 0 24 24" fill="none" xmlns="http://www.w3.org/2000/svg">
<path d="M21.8899 7.17188C21.9999 8.43288 21.9999 10.0059 21.9999 11.9999C21.9999 16.1339 21.9999 18.4549 21.0129 19.9509L15.0599 13.9999L21.8879 7.17188H21.8899ZM19.9519 21.0119L13.9999 15.0599L7.17188 21.8899C8.43288 21.9999 10.0059 21.9999 11.9999 21.9999C16.1339 21.9999 18.4559 21.9999 19.9519 21.0119Z" fill="#F3C95B"/>
<path fill-rule="evenodd" clip-rule="evenodd" d="M12 2C16.714 2 19.071 2 20.535 3.464C21.039 3.968 21.37 4.578 21.587 5.353L5.353 21.587C4.578 21.37 3.968 21.039 3.464 20.535C2 19.072 2 16.714 2 12C2 7.286 2 4.929 3.464 3.464C4.93 2 7.286 2 12 2ZM5.5 8.757C5.5 10.542 6.617 12.625 8.36 13.37C8.766 13.543 9.234 13.543 9.64 13.37C11.383 12.625 12.5 10.542 12.5 8.757C12.5 6.958 10.933 5.5 9 5.5C7.067 5.5 5.5 6.958 5.5 8.757Z" fill="#F3C95B"/>
<path d="M10.5 9C10.5 9.39782 10.342 9.77936 10.0607 10.0607C9.77936 10.342 9.39782 10.5 9 10.5C8.60218 10.5 8.22064 10.342 7.93934 10.0607C7.65804 9.77936 7.5 9.39782 7.5 9C7.5 8.60218 7.65804 8.22064 7.93934 7.93934C8.22064 7.65804 8.60218 7.5 9 7.5C9.39782 7.5 9.77936 7.65804 10.0607 7.93934C10.342 8.22064 10.5 8.60218 10.5 9Z" fill="#F3C95B"/>
</svg>
