<svg width="24" height="24" viewBox="0 0 24 24" fill="none" xmlns="http://www.w3.org/2000/svg">
<path fill-rule="evenodd" clip-rule="evenodd" d="M12.9996 3C12.9996 2.73478 12.8943 2.48043 12.7067 2.29289C12.5192 2.10536 12.2648 2 11.9996 2C11.7344 2 11.48 2.10536 11.2925 2.29289C11.105 2.48043 10.9996 2.73478 10.9996 3V3.75H10.4426C9.37065 3.74993 8.33894 4.15839 7.55754 4.89224C6.77613 5.62608 6.30377 6.63014 6.23661 7.7L6.01561 11.234C5.93134 12.5814 5.47891 13.8799 4.70761 14.988C4.54825 15.2171 4.45087 15.4835 4.42496 15.7613C4.39904 16.0392 4.44547 16.319 4.55973 16.5736C4.67398 16.8281 4.85218 17.0488 5.07698 17.2142C5.30179 17.3795 5.56555 17.4838 5.84261 17.517L9.24962 17.925V19C9.24962 19.7293 9.53935 20.4288 10.0551 20.9445C10.5708 21.4603 11.2703 21.75 11.9996 21.75C12.729 21.75 13.4284 21.4603 13.9442 20.9445C14.4599 20.4288 14.7496 19.7293 14.7496 19V17.925L18.1566 17.516C18.4335 17.4827 18.6971 17.3784 18.9218 17.2131C19.1464 17.0478 19.3245 16.8273 19.4388 16.5729C19.553 16.3184 19.5995 16.0388 19.5737 15.7611C19.5479 15.4834 19.4507 15.2171 19.2916 14.988C18.5203 13.88 18.0678 12.5815 17.9836 11.234L17.7626 7.701C17.6957 6.63096 17.2234 5.62665 16.442 4.8926C15.6606 4.15855 14.6287 3.74995 13.5566 3.75H12.9996V3ZM10.7496 19C10.7496 19.3315 10.8813 19.6495 11.1157 19.8839C11.3502 20.1183 11.6681 20.25 11.9996 20.25C12.3311 20.25 12.6491 20.1183 12.8835 19.8839C13.1179 19.6495 13.2496 19.3315 13.2496 19V18.25H10.7496V19Z" fill="#5BD881"/>
</svg>
