<svg width="24" height="24" viewBox="0 0 24 24" fill="none" xmlns="http://www.w3.org/2000/svg">
<path d="M18 16.92C19.14 16.821 19.922 16.597 20.538 16.092C20.74 15.926 20.926 15.74 21.092 15.538C22 14.43 22 12.788 22 9.5C22 6.213 22 4.569 21.092 3.462C20.9259 3.25965 20.7404 3.07409 20.538 2.908C19.43 2 17.788 2 14.5 2H9.5C6.213 2 4.569 2 3.462 2.908C3.25965 3.07409 3.07409 3.25965 2.908 3.462C2 4.57 2 6.212 2 9.5C2 12.787 2 14.431 2.908 15.538C3.07409 15.7404 3.25965 15.9259 3.462 16.092C4.078 16.597 4.86 16.822 6 16.921" stroke="#5BD881" stroke-width="1.5" stroke-linecap="round"/>
<path opacity="0.5" d="M20.5 15.5L14 10.5M14 10.5L3.5 3M14 10.5L20.5 3.5" stroke="#5BD881" stroke-width="1.5" stroke-linecap="round"/>
<path opacity="0.5" d="M15.2677 19.2L13.9327 16.53C13.0897 14.842 12.6687 14 12.0007 14C11.3327 14 10.9117 14.843 10.0687 16.53L8.73369 19.2C8.22169 20.224 7.96569 20.737 8.00369 21.059C8.06069 21.524 8.41069 21.901 8.87169 21.989C9.18969 22.051 9.71869 21.832 10.7767 21.394C11.1667 21.232 11.3637 21.151 11.5637 21.11C11.8517 21.05 12.1497 21.05 12.4377 21.11C12.6377 21.151 12.8337 21.232 13.2247 21.394C14.2827 21.832 14.8107 22.051 15.1297 21.99C15.5897 21.9 15.9397 21.525 15.9967 21.059C16.0367 20.736 15.7797 20.223 15.2677 19.2Z" stroke="#5BD881" stroke-width="1.5"/>
</svg>
