<svg width="24" height="24" viewBox="0 0 24 24" fill="none" xmlns="http://www.w3.org/2000/svg">
<path d="M2 13.4375C2 9.6645 2 7.7795 3.172 6.6085C4.343 5.4375 6.229 5.4375 10 5.4375H14C17.771 5.4375 19.657 5.4375 20.828 6.6085C22 7.7805 22 9.6655 22 13.4375C22 17.2075 22 19.0935 20.828 20.2655C19.657 21.4375 17.771 21.4375 14 21.4375H10C6.229 21.4375 4.343 21.4375 3.172 20.2655C2 19.0935 2 17.2085 2 13.4375Z" stroke="#F3C95B" stroke-width="1.5"/>
<path opacity="0.5" d="M3.98828 6C4.10028 5.069 4.33528 4.426 4.82528 3.937C5.76528 3 7.27928 3 10.3073 3H13.5183C16.5463 3 18.0593 3 19.0003 3.937C19.4903 4.426 19.7253 5.069 19.8373 6" stroke="#F3C95B" stroke-width="1.5"/>
<path opacity="0.5" d="M17.5 11.4375C18.3284 11.4375 19 10.7659 19 9.9375C19 9.10907 18.3284 8.4375 17.5 8.4375C16.6716 8.4375 16 9.10907 16 9.9375C16 10.7659 16.6716 11.4375 17.5 11.4375Z" stroke="#F3C95B" stroke-width="1.5"/>
<path opacity="0.5" d="M2 13.9374L3.752 12.4044C4.19114 12.0205 4.75974 11.8177 5.34272 11.8372C5.9257 11.8567 6.47949 12.097 6.892 12.5094L11.182 16.7994C11.515 17.1321 11.9547 17.3366 12.4237 17.3771C12.8927 17.4175 13.361 17.2912 13.746 17.0204L14.045 16.8104C14.6007 16.4203 15.2723 16.2303 15.95 16.2713C16.6277 16.3124 17.2714 16.5821 17.776 17.0364L21 19.9364" stroke="#F3C95B" stroke-width="1.5" stroke-linecap="round"/>
</svg>
