<svg width="24" height="24" viewBox="0 0 24 24" fill="none" xmlns="http://www.w3.org/2000/svg">
<path opacity="0.5" d="M12 8V12L14.5 14.5" stroke="#D9D9D9" stroke-opacity="0.866667" stroke-width="1.5" stroke-linecap="round" stroke-linejoin="round"/>
<path d="M4.33834 6.87113L3.58834 6.87413C3.58913 7.07183 3.66795 7.26123 3.80765 7.40112C3.94736 7.54101 4.13664 7.62008 4.33434 7.62113L4.33834 6.87113ZM6.88034 7.63313C6.97883 7.63359 7.07645 7.61465 7.16762 7.57738C7.25879 7.54012 7.34173 7.48526 7.4117 7.41594C7.48167 7.34662 7.5373 7.2642 7.57541 7.17338C7.61353 7.08256 7.63338 6.98512 7.63384 6.88663C7.6343 6.78814 7.61536 6.69052 7.57809 6.59935C7.54083 6.50818 7.48597 6.42525 7.41665 6.35528C7.34733 6.28531 7.26491 6.22968 7.17409 6.19156C7.08327 6.15345 6.98583 6.13359 6.88734 6.13313L6.88034 7.63313ZM5.07534 4.32113C5.07482 4.22264 5.0549 4.12522 5.01672 4.03442C4.97855 3.94363 4.92286 3.86125 4.85285 3.79197C4.78283 3.7227 4.69986 3.6679 4.60866 3.63069C4.51747 3.59349 4.41984 3.57461 4.32134 3.57513C4.22285 3.57566 4.12543 3.59558 4.03464 3.63375C3.94384 3.67193 3.86146 3.72762 3.79219 3.79763C3.72291 3.86765 3.66811 3.95062 3.6309 4.04182C3.5937 4.13301 3.57482 4.23064 3.57534 4.32913L5.07534 4.32113ZM3.82734 10.7851C3.84171 10.6871 3.83652 10.5872 3.81207 10.4912C3.78761 10.3952 3.74438 10.305 3.68487 10.2258C3.62536 10.1466 3.55075 10.08 3.46534 10.0298C3.37993 9.97957 3.28543 9.94678 3.18728 9.93331C3.08913 9.91984 2.98929 9.92594 2.89351 9.95127C2.79774 9.9766 2.70793 10.0207 2.62928 10.0809C2.55062 10.1411 2.48468 10.2163 2.43526 10.3022C2.38584 10.3881 2.35392 10.4829 2.34134 10.5811L3.82734 10.7851ZM18.8623 5.13813C15.0423 1.31813 8.86934 1.27813 5.07434 5.07413L6.13434 6.13413C9.33434 2.93513 14.5573 2.95413 17.8023 6.19813L18.8623 5.13813ZM5.13834 18.8621C8.95834 22.6821 15.1313 22.7221 18.9263 18.9261L17.8663 17.8661C14.6663 21.0651 9.44334 21.0461 6.19834 17.8021L5.13834 18.8621ZM18.9263 18.9261C22.7213 15.1311 22.6823 8.95813 18.8623 5.13813L17.8023 6.19813C21.0463 9.44313 21.0653 14.6661 17.8663 17.8661L18.9263 18.9261ZM5.07434 5.07413L3.80734 6.34013L4.86834 7.40013L6.13434 6.13413L5.07434 5.07413ZM4.33434 7.62113L6.88034 7.63313L6.88734 6.13313L4.34234 6.12113L4.33434 7.62113ZM5.08834 6.86713L5.07534 4.32113L3.57534 4.32913L3.58834 6.87413L5.08834 6.86713ZM2.34034 10.5801C2.13501 12.0828 2.28081 13.6126 2.76628 15.0494C3.25176 16.4862 4.0637 17.792 5.13834 18.8621L6.19834 17.8021C5.28757 16.8954 4.59945 15.7889 4.18805 14.5713C3.77665 13.3538 3.65318 12.0584 3.82734 10.7851L2.34034 10.5801Z" fill="#D9D9D9" fill-opacity="0.866667"/>
</svg>
