<svg width="24" height="24" viewBox="0 0 24 24" fill="none" xmlns="http://www.w3.org/2000/svg">
<path d="M3 8.70991C3 7.23591 3 6.49991 3.393 6.06991C3.53209 5.91694 3.70129 5.79437 3.89 5.70991C4.422 5.47391 5.121 5.70691 6.519 6.17291C7.586 6.52891 8.119 6.70691 8.659 6.68791C8.8571 6.68139 9.05406 6.65527 9.247 6.60991C9.772 6.48491 10.24 6.17291 11.176 5.54991L12.558 4.62791C13.758 3.82791 14.357 3.42791 15.045 3.33691C15.733 3.24391 16.417 3.47191 17.784 3.92791L18.949 4.31591C19.939 4.64591 20.434 4.81091 20.717 5.20391C21 5.59691 21 6.11891 21 7.16191V15.2909C21 16.7639 21 17.5009 20.607 17.9309C20.4677 18.0832 20.2985 18.205 20.11 18.2889C19.578 18.5259 18.879 18.2929 17.481 17.8269C16.414 17.4709 15.881 17.2929 15.341 17.3119C15.1429 17.3184 14.9459 17.3446 14.753 17.3899C14.228 17.5149 13.76 17.8269 12.824 18.4499L11.442 19.3719C10.242 20.1719 9.643 20.5719 8.955 20.6629C8.267 20.7559 7.583 20.5279 6.216 20.0719L5.051 19.6839C4.061 19.3539 3.566 19.1889 3.283 18.7959C3 18.4029 3 17.8799 3 16.8379V8.70891V8.70991Z" stroke="#F3C95B" stroke-width="1.5"/>
<path opacity="0.5" d="M9 6.639V20.5M15 3V17" stroke="#F3C95B" stroke-width="1.5"/>
</svg>
