<svg width="72" height="72" viewBox="0 0 72 72" fill="none" xmlns="http://www.w3.org/2000/svg">
<path d="M36 69.75C54.6396 69.75 69.75 54.6396 69.75 36C69.75 17.3604 54.6396 2.25 36 2.25C17.3604 2.25 2.25 17.3604 2.25 36C2.25 54.6396 17.3604 69.75 36 69.75Z" fill="#699635"/>
<path d="M35.6641 30.0375C35.5516 29.025 36.1141 28.0125 37.1266 28.2375C37.9141 28.35 38.8141 29.1375 38.3641 29.925C37.6891 31.1625 35.8891 31.1625 34.7641 31.8375C34.8766 32.5125 38.1391 31.725 38.7016 31.725C39.2641 31.725 39.8266 31.95 39.4891 32.625C39.1516 33.3 38.0266 33.3 37.3516 33.4125C36.6766 33.525 35.5516 33.525 35.2141 34.0875C34.5391 34.9875 35.8891 35.1 36.3391 35.325C37.4641 35.8875 35.6641 36.45 35.2141 36.3375C33.5266 36 33.1891 35.1 32.1766 33.975C31.1641 35.325 28.0141 38.3625 27.3391 35.2125C26.2141 35.6625 25.0891 36.225 23.8516 36.3375C24.4141 35.55 25.5391 35.2125 26.4391 34.7625C27.5641 34.2 27.5641 33.1875 28.2391 32.2875C28.4641 32.625 28.2391 33.075 28.3516 33.525C29.2516 33.075 30.3766 32.175 29.9266 31.05C29.9266 30.9375 28.5766 28.2375 29.7016 28.6875C30.7141 29.1375 30.3766 30.15 30.6016 30.9375C30.9391 32.4 30.2641 33.1875 29.1391 34.0875C28.6891 34.425 27.4516 35.775 28.9141 35.775C29.9266 35.775 30.8266 34.65 31.3891 33.975C32.0641 33.075 31.8391 32.175 31.3891 31.1625C31.0516 30.375 30.2641 28.6875 31.2766 28.125C32.0641 29.3625 32.4016 30.825 32.7391 32.2875C32.9641 33.525 33.1891 34.7625 34.5391 35.1C34.4266 34.2 34.9891 33.525 35.7766 33.1875C35.2141 32.7375 32.0641 33.3 33.3016 31.6125C33.4141 30.825 35.6641 30.4875 35.6641 30.0375Z" fill="white"/>
<path d="M18.4512 34.1999C19.0137 35.7749 20.9262 35.2124 22.0512 34.7624C23.8512 33.8624 23.8512 32.5124 23.8512 30.7124C23.1762 31.0499 23.2887 32.2874 23.0637 32.8499C22.6137 33.7499 21.1512 34.5374 20.1387 34.4249C18.6762 34.1999 18.0012 31.7249 19.1262 30.8249C19.3512 31.6124 18.7887 33.2999 20.1387 33.4124C21.1512 33.525 23.1762 32.2874 22.8387 31.1624C21.4887 31.6124 20.7012 31.1624 21.1512 29.6999C21.4887 28.3499 22.8387 29.3624 23.4012 30.0374C25.5387 28.7999 21.7137 24.0749 23.9637 22.8374C24.4137 23.6249 25.0887 24.6374 24.5262 25.4249C23.8512 26.3249 24.5262 28.2374 24.6387 29.2499C25.7637 28.2374 24.8637 30.0374 25.7637 30.1499C26.3262 30.2624 26.5512 28.7999 26.8887 28.7999C27.0012 29.1374 27.0012 30.1499 27.5637 30.0374C28.2387 29.8124 27.4512 28.9124 28.1262 28.6874C28.3512 29.2499 28.2387 30.9374 27.4512 30.8249C26.7762 30.7124 26.8887 30.2624 26.1012 30.7124C25.4262 31.0499 25.2012 30.7124 24.7512 30.3749C24.6387 31.7249 25.0887 33.1874 24.3012 34.4249C23.6262 35.4374 22.2762 35.9999 21.1512 36.2249C18.2262 36.7874 17.4387 33.8624 18.4512 31.4999C18.6762 32.1749 18.2262 33.4124 18.4512 34.1999ZM45.9012 34.7624C46.4637 36.2249 47.5887 33.1874 47.9262 32.7374C48.8262 31.3874 50.1762 34.8749 50.7387 32.6249C51.0762 31.1624 50.6262 29.6999 50.5137 28.2374C50.4012 27.2249 50.0637 26.3249 49.3887 25.5374C48.7137 24.6374 48.0387 23.8499 48.3762 22.7249C49.5012 23.1749 49.5012 24.0749 50.0637 24.9749C50.1762 24.2999 49.7262 23.3999 50.1762 22.8374C50.7387 22.0499 51.1887 24.1874 51.1887 24.4124C51.3012 24.9749 50.7387 25.1999 51.0762 26.0999C51.3012 26.7749 51.7512 27.4499 52.2012 28.0124C52.0887 27.3374 51.0762 22.7249 52.2012 22.7249C52.5387 22.7249 52.8762 24.0749 52.8762 24.2999C53.1012 24.9749 52.6512 25.5374 52.6512 26.3249C52.5387 27.6749 52.7637 29.2499 53.6637 30.2624C54.1137 30.8249 55.8012 32.8499 54.9012 33.5249C54.2262 32.7374 53.7762 31.8374 53.2137 31.0499C53.2137 31.9499 53.4387 32.9624 52.9887 33.6374C52.5387 33.4124 52.7637 31.9499 52.7637 31.6124C52.7637 30.3749 51.9762 29.3624 51.3012 28.3499C51.0762 30.0374 52.4262 33.1874 50.8512 34.4249C49.8387 35.3249 48.4887 33.2999 48.1512 34.0874C47.8137 34.6499 47.0262 36.675 46.1262 36.45C45.0012 36.225 44.2137 33.0749 45.4512 32.7374C45.5637 33.2999 45.5637 34.0874 45.9012 34.7624Z" fill="white"/>
<path d="M21.826 27.1124C22.6135 27.2249 21.826 24.5249 21.826 24.0749C21.9385 23.6249 22.276 23.3999 22.501 23.8499C22.8385 24.5249 22.8385 25.3124 22.951 25.9874C22.951 26.5499 23.0635 27.2249 22.6135 27.6749C21.9385 28.3499 21.0385 28.0124 20.701 27.1124C19.126 28.4624 21.151 30.8249 19.801 32.1749C19.576 30.9374 19.801 29.5874 19.351 28.4624C19.126 27.8999 18.1135 28.1249 18.001 27.1124C18.001 26.6624 18.3385 25.4249 17.8885 25.0874C17.6635 25.5374 17.4385 29.0249 16.3135 28.0124C15.4135 27.3374 15.6385 25.0874 15.976 24.1874C16.651 24.5249 15.8635 26.9999 16.7635 27.1124C17.2135 27.2249 17.326 25.3124 17.4385 24.9749C17.776 24.4124 18.901 22.8374 18.676 24.4124C18.5635 25.0874 18.001 27.2249 19.351 27.1124C19.2385 25.9874 19.126 24.8624 18.901 23.7374C18.7885 23.1749 19.126 22.0499 19.576 23.0624C19.9135 23.7374 19.6885 24.0749 19.576 24.7499C19.4635 25.5374 19.801 26.3249 19.9135 26.9999C20.5885 26.4374 19.6885 24.2999 20.251 23.3999C21.601 24.1874 20.1385 26.8874 21.826 27.1124ZM36.3385 27.3374C35.776 28.1249 34.7635 27.4499 34.3135 26.8874C33.751 27.5624 32.626 28.6874 31.726 27.7874C31.051 27.1124 31.8385 25.8749 31.276 25.3124C30.9385 25.8749 30.376 28.5749 29.3635 27.3374C28.801 26.6624 28.0135 24.2999 29.251 23.7374C29.1385 24.6374 28.9135 25.6499 29.476 26.4374C30.0385 27.2249 30.601 25.1999 30.826 24.7499C31.1635 23.9624 32.2885 22.6124 32.0635 24.2999C31.951 24.9749 31.726 26.5499 32.401 26.9999C32.851 27.3374 33.4135 26.7749 33.6385 26.4374C34.0885 25.8749 33.8635 24.9749 33.751 24.2999C33.6385 23.7374 33.4135 23.0624 33.751 22.4999C34.201 21.8249 34.5385 23.3999 34.5385 23.7374C34.5385 24.0749 34.9885 27.5624 35.776 26.4374C36.5635 25.4249 34.426 23.1749 35.8885 22.6124C36.451 22.3874 37.4635 24.6374 36.3385 23.9624C36.676 24.9749 37.126 26.4374 36.3385 27.3374ZM40.6135 28.6874C40.726 30.1499 41.9635 34.1999 40.276 35.0999C40.051 34.6499 40.276 33.9749 40.3885 33.4124C40.501 32.3999 40.276 31.3874 40.1635 30.4874C39.9385 28.3499 39.7135 26.7749 38.251 25.0874C37.9135 24.6374 37.351 24.2999 37.2385 23.6249C37.2385 23.3999 37.126 22.3874 37.576 22.6124C37.9135 22.7249 39.826 24.4124 38.8135 24.4124C38.926 24.6374 39.376 25.5374 39.601 25.5374C39.601 24.9749 38.926 23.2874 39.601 22.9499C40.1635 22.6124 40.8385 24.7499 40.6135 25.1999C40.3885 25.7624 40.3885 26.0999 40.6135 26.8874C40.8385 27.7874 41.401 28.5749 41.851 29.3624C42.526 30.4874 43.876 32.0624 43.5385 33.5249C42.8635 33.1874 42.4135 31.6124 42.076 30.9374C41.851 30.3749 41.626 29.8124 41.2885 29.3624C41.176 29.2499 40.501 28.3499 40.6135 28.9124V28.6874ZM56.251 30.8249C56.3635 33.1874 55.576 36.2249 52.651 36.2249C52.651 35.5499 54.1135 34.8749 54.5635 34.5374C55.6885 33.6374 55.576 31.9499 55.4635 30.7124C55.351 29.0249 55.2385 27.3374 54.901 25.6499C54.7885 24.6374 54.226 23.1749 55.126 22.4999C55.6885 22.9499 56.476 24.1874 56.1385 24.6374C55.576 25.3124 56.1385 30.3749 56.251 30.8249Z" fill="white"/>
<path d="M41.8504 35.8875C44.7754 34.2 43.8754 30.6 43.6504 27.7875C43.5379 27 43.5379 26.2125 43.4254 25.425C43.4254 24.8625 42.9754 24.075 43.2004 23.5125C43.7629 22.05 44.2129 23.4 44.3254 24.3C44.4379 24.8625 43.9879 24.975 44.1004 25.425C44.2129 26.325 44.2129 27.225 44.3254 28.125C44.4379 29.5875 44.6629 31.05 44.5504 32.4C44.3254 34.5375 43.2004 36.9 40.6129 36.45C40.7254 36.225 41.5129 36.1125 41.8504 35.8875ZM46.5754 30.2625C46.6879 31.3875 47.1379 33.4125 46.5754 34.425C46.1254 35.1 46.1254 33.975 46.0129 33.8625C45.9004 32.9625 45.9004 32.0625 45.9004 31.05C45.6754 28.575 44.8879 26.1 44.8879 23.7375C44.8879 20.7 47.4754 25.425 46.0129 25.2C46.1254 26.8875 46.3504 28.575 46.5754 30.2625ZM28.2379 24.525C28.4629 25.0875 25.6504 26.55 25.3129 26.55C25.2004 25.9875 26.5504 25.2 26.8879 24.975C27.2254 24.6375 27.4504 24.6375 27.3379 24.1875C27.1129 23.7375 27.2254 22.95 27.7879 22.725C28.9129 22.3875 28.1254 24.075 28.2379 24.525ZM16.6504 34.5375C16.6504 35.4375 16.9879 34.9875 17.4379 34.7625C17.6629 35.2125 17.1004 36.45 16.5379 35.8875C15.7504 35.1 16.4254 33.3 16.7629 32.5125C16.9879 33.075 16.5379 33.975 16.6504 34.5375ZM48.3754 27.5625C48.4879 27.1125 48.1504 26.6625 48.4879 26.2125C48.9379 25.65 49.3879 26.325 49.1629 26.55C48.9379 26.775 48.6004 26.325 48.6004 27C48.6004 27.3375 48.8254 28.0125 48.4879 28.35C48.2629 28.2375 47.2504 26.775 47.3629 26.55C47.8129 26.1 48.2629 27.45 48.3754 27.5625ZM19.0129 29.475C18.7879 29.925 16.2004 31.3875 16.0879 31.05C16.0879 30.7125 19.3504 28.8 19.0129 29.475ZM38.1379 35.2125C37.8004 36.225 39.2629 35.325 39.6004 35.2125C39.1504 36 37.5754 36.675 37.8004 35.2125C37.6879 35.2125 37.4629 35.325 37.3504 35.325C37.1254 35.1 38.4754 34.2 38.1379 35.2125ZM50.4004 34.875C50.7379 34.875 51.3004 35.8875 50.9629 36.1125C50.7379 36.3375 49.7254 36.45 50.2879 36C50.9629 35.325 50.4004 34.875 50.4004 34.875ZM34.5379 29.1375C34.6504 28.9125 34.6504 28.575 34.7629 28.35C35.8879 29.25 32.9629 30.7125 33.5254 28.575C33.7504 28.8 33.7504 29.1375 33.9754 29.25C33.9754 29.025 34.0879 28.6875 34.0879 28.4625C34.3129 28.6875 34.3129 29.025 34.5379 29.1375ZM47.7004 30.6C47.3629 30.15 49.3879 28.9125 49.7254 28.6875C49.9504 29.025 48.3754 30.2625 47.7004 30.6ZM54.0004 26.1C53.7754 25.425 53.1004 24.075 53.7754 23.5125C54.2254 23.85 54.4504 25.5375 54.0004 26.1ZM41.7379 23.85C41.6254 23.625 41.2879 23.4 41.2879 23.0625C41.4004 22.6125 41.6254 22.725 41.8504 22.95C42.1879 23.4 42.4129 24.6375 41.8504 24.975C41.8504 24.6375 41.9629 24.1875 41.7379 23.85ZM28.0129 26.8875C28.0129 27.5625 26.8879 28.2375 26.7754 27.3375C26.6629 27 27.2254 25.7625 27.4504 26.1C27.0004 27.1125 27.0004 27.45 28.0129 26.8875Z" fill="white"/>
<path d="M42.0752 25.6497C42.5252 26.7747 42.3002 25.7622 42.7502 25.5372C43.5377 26.9997 41.0627 26.6622 41.6252 25.7622C41.7377 25.8747 41.8502 26.0997 41.8502 26.2122C41.9627 26.0997 41.9627 25.8747 42.0752 25.6497ZM49.2752 30.8247C48.7127 30.3747 49.3877 29.8122 49.7252 30.3747C49.9502 30.7122 49.9502 31.6122 49.5002 31.8372C49.5002 31.4997 49.6127 31.0497 49.2752 30.8247ZM26.2127 33.2997C26.2127 33.0747 26.1002 31.3872 26.4377 31.6122C26.8877 31.8372 26.7752 33.0747 26.2127 33.2997ZM21.4877 22.7247C21.6002 23.0622 21.7127 23.5122 21.9377 22.9497C22.8377 23.9622 19.6877 23.6247 20.8127 22.6122C20.8127 22.7247 21.0377 23.3997 21.4877 22.7247ZM32.9627 25.1997C32.9627 24.7497 32.2877 22.8372 32.8502 22.8372C33.5252 22.9497 33.4127 24.6372 32.9627 25.1997ZM17.2127 24.1872C16.8752 24.0747 17.4377 23.5122 17.2127 23.0622C16.9877 23.1747 16.7627 22.8372 16.9877 22.6122C17.8877 21.9372 17.5502 24.1872 17.2127 24.1872ZM46.3502 47.0247L45.9002 45.6747L45.4502 47.0247H20.8127C20.8127 47.0247 21.0377 49.0497 23.5127 49.0497H45.3377V50.6247H51.3002V47.0247H46.3502ZM50.1752 49.7247H46.1252V48.5997H50.1752V49.7247Z" fill="white"/>
</svg>
