<svg width="24" height="24" viewBox="0 0 24 24" fill="none" xmlns="http://www.w3.org/2000/svg">
<path opacity="0.5" d="M8.31836 12.1979L12.1984 8.31787M15.3024 11.4219L11.4224 15.3019" stroke="#F3C857" stroke-width="1.5"/>
<path d="M3.43174 15.6198C2.52674 14.7148 2.07474 14.2628 2.01074 13.7098C1.99642 13.5868 1.99642 13.4627 2.01074 13.3398C2.07474 12.7878 2.52674 12.3358 3.43074 11.4318C4.33574 10.5268 4.78774 10.0748 5.33974 10.0108C5.46274 9.99576 5.58774 9.99576 5.70974 10.0108C6.26274 10.0748 6.71474 10.5268 7.61974 11.4308L12.5677 16.3808C13.4727 17.2848 13.9247 17.7368 13.9887 18.2888C14.0037 18.4118 14.0037 18.5368 13.9887 18.6598C13.9247 19.2118 13.4727 19.6638 12.5687 20.5678C11.6637 21.4728 11.2117 21.9248 10.6597 21.9888C10.5368 22.0031 10.4127 22.0031 10.2897 21.9888C9.73674 21.9248 9.28474 21.4728 8.37974 20.5688L3.43174 15.6198ZM11.4317 7.61976C10.5267 6.71476 10.0747 6.26276 10.0107 5.70976C9.99642 5.58684 9.99642 5.46268 10.0107 5.33976C10.0747 4.78776 10.5267 4.33576 11.4307 3.43176C12.3357 2.52676 12.7877 2.07476 13.3397 2.01076C13.4627 1.99576 13.5877 1.99576 13.7097 2.01076C14.2627 2.07476 14.7147 2.52676 15.6197 3.43076L20.5677 8.38076C21.4727 9.28476 21.9247 9.73676 21.9887 10.2888C22.0037 10.4118 22.0037 10.5368 21.9887 10.6598C21.9247 11.2118 21.4727 11.6638 20.5687 12.5678C19.6637 13.4728 19.2117 13.9248 18.6597 13.9888C18.5368 14.0031 18.4127 14.0031 18.2897 13.9888C17.7367 13.9248 17.2847 13.4728 16.3797 12.5688L11.4317 7.61976Z" stroke="#F3C857" stroke-width="1.5"/>
<path opacity="0.5" d="M18.019 2.49756L21.123 5.60156M2.49805 18.0186L5.60205 21.1226" stroke="#F3C857" stroke-width="1.5" stroke-linecap="round" stroke-linejoin="round"/>
</svg>
