<svg width="32" height="33" viewBox="0 0 32 33" fill="none" xmlns="http://www.w3.org/2000/svg">
<g clip-path="url(#clip0_77_208)">
<path d="M0.687311 15.9277C0.686561 18.6367 1.39438 21.2818 2.74029 23.6132L0.558594 31.5789L8.71052 29.4414C10.9652 30.6689 13.4915 31.3121 16.0587 31.3122H16.0654C24.5401 31.3122 31.4387 24.4161 31.4424 15.9399C31.444 11.8325 29.8459 7.97027 26.9424 5.06451C24.0394 2.159 20.1785 0.558027 16.0648 0.556152C7.58906 0.556152 0.690935 7.4519 0.687436 15.9277" fill="url(#paint0_linear_77_208)"/>
<path d="M0.137622 15.923C0.136748 18.7294 0.869936 21.469 2.26383 23.8839L0.00390625 32.1352L8.44814 29.9212C10.7748 31.1897 13.3944 31.8585 16.06 31.8595H16.0668C24.8456 31.8595 31.992 24.7153 31.9958 15.9357C31.9973 11.6808 30.3417 7.67967 27.3345 4.66981C24.3269 1.66033 20.3279 0.00174956 16.0668 0C7.28656 0 0.141121 7.14319 0.137622 15.923ZM5.16635 23.468L4.85105 22.9675C3.52564 20.8601 2.82606 18.4247 2.82706 15.924C2.82994 8.62644 8.76893 2.68932 16.0718 2.68932C19.6084 2.69082 22.9321 4.06947 25.4319 6.57083C27.9317 9.07245 29.3072 12.3979 29.3063 15.9347C29.3031 23.2322 23.364 29.1701 16.0668 29.1701H16.0616C13.6856 29.1688 11.3553 28.5308 9.32304 27.3249L8.83941 27.0381L3.82844 28.3519L5.16635 23.4679V23.468Z" fill="url(#paint1_linear_77_208)"/>
<path d="M12.0854 9.2663C11.7872 8.60359 11.4734 8.59022 11.1898 8.5786C10.9576 8.5686 10.6922 8.56935 10.427 8.56935C10.1616 8.56935 9.73033 8.6692 9.3658 9.06722C9.00089 9.46562 7.97266 10.4284 7.97266 12.3865C7.97266 14.3448 9.39892 16.2372 9.59774 16.503C9.79682 16.7683 12.3512 20.9152 16.3966 22.5106C19.7588 23.8363 20.443 23.5727 21.1727 23.5062C21.9025 23.4399 23.5276 22.5437 23.8591 21.6143C24.1909 20.685 24.1909 19.8885 24.0914 19.722C23.992 19.5562 23.7265 19.4566 23.3285 19.2576C22.9304 19.0586 20.9736 18.0957 20.6088 17.9628C20.2439 17.8301 19.9786 17.7639 19.7132 18.1624C19.4477 18.5603 18.6856 19.4566 18.4532 19.722C18.2212 19.9881 17.9889 20.0212 17.591 19.8221C17.1927 19.6224 15.9109 19.2026 14.3902 17.8469C13.207 16.7919 12.4082 15.4891 12.176 15.0906C11.9438 14.6927 12.1511 14.477 12.3507 14.2786C12.5295 14.1003 12.7488 13.8139 12.948 13.5816C13.1465 13.3491 13.2127 13.1833 13.3454 12.9179C13.4783 12.6522 13.4118 12.4197 13.3124 12.2207C13.2127 12.0216 12.4393 10.0532 12.0854 9.2663Z" fill="white"/>
</g>
<defs>
<linearGradient id="paint0_linear_77_208" x1="1544.75" y1="3102.83" x2="1544.75" y2="0.556152" gradientUnits="userSpaceOnUse">
<stop stop-color="#1FAF38"/>
<stop offset="1" stop-color="#60D669"/>
</linearGradient>
<linearGradient id="paint1_linear_77_208" x1="1599.6" y1="3213.52" x2="1599.6" y2="0" gradientUnits="userSpaceOnUse">
<stop stop-color="#F9F9F9"/>
<stop offset="1" stop-color="white"/>
</linearGradient>
<clipPath id="clip0_77_208">
<rect width="32" height="32.2418" fill="white"/>
</clipPath>
</defs>
</svg>
